solid Model
  facet normal 0 0 -1
    outer loop
      vertex -20.4 -21.7 0
      vertex -5.813 -21.266 0
      vertex -6.196 -21.7 0
    endloop
  endfacet
  facet normal 0 0 -1
    outer loop
      vertex -20.4 -21.7 0
      vertex -20.4 -6 0
      vertex -5.813 -21.266 0
    endloop
  endfacet
  facet normal 0 0 -1
    outer loop
      vertex -5.813 -21.266 0
      vertex -5.471 -6.175 0
      vertex -5.109 -20.562 0
    endloop
  endfacet
  facet normal 0 0 -1
    outer loop
      vertex -5.813 -21.266 0
      vertex -5.646 -6 0
      vertex -5.471 -6.175 0
    endloop
  endfacet
  facet normal 0 0 -1
    outer loop
      vertex -5.813 -21.266 0
      vertex -20.4 -6 0
      vertex -5.646 -6 0
    endloop
  endfacet
  facet normal 0 0 -1
    outer loop
      vertex -5.109 -20.562 0
      vertex -4.686 -6.79 0
      vertex -4.361 -19.903 0
    endloop
  endfacet
  facet normal 0 0 -1
    outer loop
      vertex -5.109 -20.562 0
      vertex -5.471 -6.175 0
      vertex -4.686 -6.79 0
    endloop
  endfacet
  facet normal 0 0 -1
    outer loop
      vertex -4.361 -19.903 0
      vertex -4.686 -6.79 0
      vertex -3.574 -19.292 0
    endloop
  endfacet
  facet normal 0 0 -1
    outer loop
      vertex -3.574 -19.292 0
      vertex -3.834 -7.305 0
      vertex -2.75 -18.732 0
    endloop
  endfacet
  facet normal 0 0 -1
    outer loop
      vertex -3.574 -19.292 0
      vertex -4.686 -6.79 0
      vertex -3.834 -7.305 0
    endloop
  endfacet
  facet normal 0 0 -1
    outer loop
      vertex -2.75 -18.732 0
      vertex -2.925 -7.714 0
      vertex -1.892 -18.225 0
    endloop
  endfacet
  facet normal 0 0 -1
    outer loop
      vertex -2.75 -18.732 0
      vertex -3.834 -7.305 0
      vertex -2.925 -7.714 0
    endloop
  endfacet
  facet normal 0 0 -1
    outer loop
      vertex -1.892 -18.225 0
      vertex -1.974 -8.01 0
      vertex -1.004 -17.772 0
    endloop
  endfacet
  facet normal 0 0 -1
    outer loop
      vertex -1.892 -18.225 0
      vertex -2.925 -7.714 0
      vertex -1.974 -8.01 0
    endloop
  endfacet
  facet normal 0 0 -1
    outer loop
      vertex -1.004 -17.772 0
      vertex -1.974 -8.01 0
      vertex -0.089 -17.376 0
    endloop
  endfacet
  facet normal 0 0 -1
    outer loop
      vertex -0.089 -17.376 0
      vertex -0.994 -8.19 0
      vertex 0.848 -17.039 0
    endloop
  endfacet
  facet normal 0 0 -1
    outer loop
      vertex -0.089 -17.376 0
      vertex -1.974 -8.01 0
      vertex -0.994 -8.19 0
    endloop
  endfacet
  facet normal 0 0 -1
    outer loop
      vertex 10.9 -17.128 0
      vertex 10.652 -17.039 0
      vertex 10.9 -6 0
    endloop
  endfacet
  facet normal 0 0 -1
    outer loop
      vertex 0.848 -17.039 0
      vertex 0 -8.25 0
      vertex 1.805 -16.761 0
    endloop
  endfacet
  facet normal 0 0 -1
    outer loop
      vertex 10.652 -17.039 0
      vertex 9.695 -16.761 0
      vertex 10.9 -6 0
    endloop
  endfacet
  facet normal 0 0 -1
    outer loop
      vertex 0.848 -17.039 0
      vertex -0.994 -8.19 0
      vertex 0 -8.25 0
    endloop
  endfacet
  facet normal 0 0 -1
    outer loop
      vertex 1.805 -16.761 0
      vertex 0.994 -8.19 0
      vertex 2.778 -16.544 0
    endloop
  endfacet
  facet normal 0 0 -1
    outer loop
      vertex 9.695 -16.761 0
      vertex 8.722 -16.544 0
      vertex 10.9 -6 0
    endloop
  endfacet
  facet normal 0 0 -1
    outer loop
      vertex 1.805 -16.761 0
      vertex 0 -8.25 0
      vertex 0.994 -8.19 0
    endloop
  endfacet
  facet normal 0 0 -1
    outer loop
      vertex 2.778 -16.544 0
      vertex 1.974 -8.01 0
      vertex 3.762 -16.388 0
    endloop
  endfacet
  facet normal 0 0 -1
    outer loop
      vertex 8.722 -16.544 0
      vertex 7.738 -16.388 0
      vertex 10.9 -6 0
    endloop
  endfacet
  facet normal 0 0 -1
    outer loop
      vertex 2.778 -16.544 0
      vertex 0.994 -8.19 0
      vertex 1.974 -8.01 0
    endloop
  endfacet
  facet normal 0 0 -1
    outer loop
      vertex 3.762 -16.388 0
      vertex 2.925 -7.714 0
      vertex 4.754 -16.294 0
    endloop
  endfacet
  facet normal 0 0 -1
    outer loop
      vertex 7.738 -16.388 0
      vertex 6.746 -16.294 0
      vertex 4.686 -6.79 0
    endloop
  endfacet
  facet normal 0 0 -1
    outer loop
      vertex 3.762 -16.388 0
      vertex 1.974 -8.01 0
      vertex 2.925 -7.714 0
    endloop
  endfacet
  facet normal 0 0 -1
    outer loop
      vertex 7.738 -16.388 0
      vertex 4.686 -6.79 0
      vertex 10.9 -6 0
    endloop
  endfacet
  facet normal 0 0 -1
    outer loop
      vertex 4.754 -16.294 0
      vertex 2.925 -7.714 0
      vertex 5.75 -16.262 0
    endloop
  endfacet
  facet normal 0 0 -1
    outer loop
      vertex 6.746 -16.294 0
      vertex 5.75 -16.262 0
      vertex 3.834 -7.305 0
    endloop
  endfacet
  facet normal 0 0 -1
    outer loop
      vertex 6.746 -16.294 0
      vertex 3.834 -7.305 0
      vertex 4.686 -6.79 0
    endloop
  endfacet
  facet normal 0 0 -1
    outer loop
      vertex 5.75 -16.262 0
      vertex 2.925 -7.714 0
      vertex 3.834 -7.305 0
    endloop
  endfacet
  facet normal 0 0 -1
    outer loop
      vertex 4.686 -6.79 0
      vertex 5.471 -6.175 0
      vertex 10.9 -6 0
    endloop
  endfacet
  facet normal 0 0 -1
    outer loop
      vertex 5.471 -6.175 0
      vertex 5.646 -6 0
      vertex 10.9 -6 0
    endloop
  endfacet
  facet normal 0 -1 0
    outer loop
      vertex -20.4 -21.7 0
      vertex -6.196 -21.7 0
      vertex -15.65 -21.7 4.75
    endloop
  endfacet
  facet normal 0.75 -0.661 0
    outer loop
      vertex -6.196 -21.7 0
      vertex -5.813 -21.266 0
      vertex -6.196 -21.7 4.75
    endloop
  endfacet
  facet normal 0.707 -0.707 0
    outer loop
      vertex -5.813 -21.266 0
      vertex -5.109 -20.562 0
      vertex -5.813 -21.266 4.75
    endloop
  endfacet
  facet normal 0.661 -0.75 0
    outer loop
      vertex -5.109 -20.562 0
      vertex -4.361 -19.903 0
      vertex -4.361 -19.903 4.75
    endloop
  endfacet
  facet normal 0.613 -0.79 0
    outer loop
      vertex -4.361 -19.903 0
      vertex -3.574 -19.292 0
      vertex -3.574 -19.292 4.75
    endloop
  endfacet
  facet normal 0.562 -0.827 0
    outer loop
      vertex -3.574 -19.292 0
      vertex -2.75 -18.732 0
      vertex -2.75 -18.732 4.75
    endloop
  endfacet
  facet normal 0.509 -0.861 0
    outer loop
      vertex -2.75 -18.732 0
      vertex -1.892 -18.225 0
      vertex -1.892 -18.225 4.75
    endloop
  endfacet
  facet normal 0.454 -0.891 0
    outer loop
      vertex -1.892 -18.225 0
      vertex -1.004 -17.772 0
      vertex -1.004 -17.772 4.75
    endloop
  endfacet
  facet normal 0.397 -0.918 0
    outer loop
      vertex -1.004 -17.772 0
      vertex -0.089 -17.376 0
      vertex -0.089 -17.376 4.75
    endloop
  endfacet
  facet normal 0.339 -0.941 0
    outer loop
      vertex -0.089 -17.376 0
      vertex 0.848 -17.039 0
      vertex 0.848 -17.039 4.75
    endloop
  endfacet
  facet normal -0.339 -0.941 0
    outer loop
      vertex 10.9 -17.128 0
      vertex 10.9 -17.128 4.75
      vertex 10.652 -17.039 0
    endloop
  endfacet
  facet normal 1 0 0
    outer loop
      vertex 10.9 -17.128 0
      vertex 10.9 -6 0
      vertex 10.9 -12.25 4.75
    endloop
  endfacet
  facet normal -0.279 -0.96 0
    outer loop
      vertex 10.652 -17.039 0
      vertex 10.652 -17.039 4.75
      vertex 9.695 -16.761 0
    endloop
  endfacet
  facet normal 0.279 -0.96 0
    outer loop
      vertex 0.848 -17.039 0
      vertex 1.805 -16.761 0
      vertex 1.805 -16.761 4.75
    endloop
  endfacet
  facet normal -0.218 -0.976 0
    outer loop
      vertex 9.695 -16.761 0
      vertex 9.695 -16.761 4.75
      vertex 8.722 -16.544 0
    endloop
  endfacet
  facet normal 0.218 -0.976 0
    outer loop
      vertex 1.805 -16.761 0
      vertex 2.778 -16.544 0
      vertex 2.778 -16.544 4.75
    endloop
  endfacet
  facet normal -0.156 -0.988 0
    outer loop
      vertex 8.722 -16.544 0
      vertex 8.722 -16.544 4.75
      vertex 7.738 -16.388 0
    endloop
  endfacet
  facet normal 0.156 -0.988 0
    outer loop
      vertex 2.778 -16.544 0
      vertex 3.762 -16.388 0
      vertex 3.762 -16.388 4.75
    endloop
  endfacet
  facet normal -0.094 -0.996 0
    outer loop
      vertex 7.738 -16.388 0
      vertex 7.738 -16.388 4.75
      vertex 6.746 -16.294 0
    endloop
  endfacet
  facet normal 0.094 -0.996 0
    outer loop
      vertex 3.762 -16.388 0
      vertex 4.754 -16.294 0
      vertex 4.754 -16.294 4.75
    endloop
  endfacet
  facet normal -0.031 -1 0
    outer loop
      vertex 6.746 -16.294 0
      vertex 6.746 -16.294 4.75
      vertex 5.75 -16.262 0
    endloop
  endfacet
  facet normal 0.031 -1 0
    outer loop
      vertex 4.754 -16.294 0
      vertex 5.75 -16.262 0
      vertex 5.75 -16.262 4.75
    endloop
  endfacet
  facet normal -0.06 0.998 0
    outer loop
      vertex 0 -8.25 0
      vertex 0 -8.25 14.99
      vertex 0.994 -8.19 0
    endloop
  endfacet
  facet normal 0.06 0.998 0
    outer loop
      vertex 0 -8.25 0
      vertex -0.994 -8.19 0
      vertex -0.994 -8.19 14.99
    endloop
  endfacet
  facet normal -0.18 0.984 0
    outer loop
      vertex 0.994 -8.19 0
      vertex 0.994 -8.19 14.99
      vertex 1.974 -8.01 0
    endloop
  endfacet
  facet normal 0.18 0.984 0
    outer loop
      vertex -0.994 -8.19 0
      vertex -1.974 -8.01 0
      vertex -1.974 -8.01 14.99
    endloop
  endfacet
  facet normal -0.298 0.955 0
    outer loop
      vertex 1.974 -8.01 0
      vertex 1.974 -8.01 14.99
      vertex 2.925 -7.714 0
    endloop
  endfacet
  facet normal 0.298 0.955 0
    outer loop
      vertex -1.974 -8.01 0
      vertex -2.925 -7.714 0
      vertex -2.925 -7.714 14.99
    endloop
  endfacet
  facet normal -0.41 0.912 0
    outer loop
      vertex 2.925 -7.714 0
      vertex 2.925 -7.714 14.99
      vertex 3.834 -7.305 0
    endloop
  endfacet
  facet normal 0.41 0.912 0
    outer loop
      vertex -2.925 -7.714 0
      vertex -3.834 -7.305 0
      vertex -3.834 -7.305 14.99
    endloop
  endfacet
  facet normal -0.517 0.856 0
    outer loop
      vertex 3.834 -7.305 0
      vertex 3.834 -7.305 14.99
      vertex 4.686 -6.79 0
    endloop
  endfacet
  facet normal 0.517 0.856 0
    outer loop
      vertex -3.834 -7.305 0
      vertex -4.686 -6.79 0
      vertex -4.686 -6.79 14.99
    endloop
  endfacet
  facet normal -0.617 0.787 0
    outer loop
      vertex 4.686 -6.79 0
      vertex 4.686 -6.79 14.99
      vertex 5.471 -6.175 0
    endloop
  endfacet
  facet normal 0.617 0.787 0
    outer loop
      vertex -4.686 -6.79 0
      vertex -5.471 -6.175 0
      vertex -5.471 -6.175 14.99
    endloop
  endfacet
  facet normal 0.707 0.707 0
    outer loop
      vertex -5.471 -6.175 0
      vertex -5.646 -6 0
      vertex -5.471 -6.175 14.99
    endloop
  endfacet
  facet normal -0.707 0.707 0
    outer loop
      vertex 5.471 -6.175 0
      vertex 5.646 -6 14.99
      vertex 5.646 -6 0
    endloop
  endfacet
  facet normal 0 1 0
    outer loop
      vertex -20.4 -6 0
      vertex -5.646 -6 14.99
      vertex -5.646 -6 0
    endloop
  endfacet
  facet normal 0 1 0
    outer loop
      vertex 5.646 -6 0
      vertex 5.646 -6 14.99
      vertex 10.9 -6 0
    endloop
  endfacet
  facet normal -1 0 0
    outer loop
      vertex -20.4 -21.7 0
      vertex -20.4 -6 18.9
      vertex -20.4 -6 0
    endloop
  endfacet
  facet normal 0 -1 0
    outer loop
      vertex -6.196 -21.7 0
      vertex -6.196 -21.7 4.75
      vertex -15.65 -21.7 4.75
    endloop
  endfacet
  facet normal 0.75 -0.661 0
    outer loop
      vertex -5.813 -21.266 0
      vertex -5.813 -21.266 4.75
      vertex -6.196 -21.7 4.75
    endloop
  endfacet
  facet normal 0.707 -0.707 0
    outer loop
      vertex -5.109 -20.562 0
      vertex -5.109 -20.562 4.75
      vertex -5.813 -21.266 4.75
    endloop
  endfacet
  facet normal 0.661 -0.75 0
    outer loop
      vertex -5.109 -20.562 0
      vertex -4.361 -19.903 4.75
      vertex -5.109 -20.562 4.75
    endloop
  endfacet
  facet normal 0.613 -0.79 0
    outer loop
      vertex -4.361 -19.903 0
      vertex -3.574 -19.292 4.75
      vertex -4.361 -19.903 4.75
    endloop
  endfacet
  facet normal 0.562 -0.827 0
    outer loop
      vertex -3.574 -19.292 0
      vertex -2.75 -18.732 4.75
      vertex -3.574 -19.292 4.75
    endloop
  endfacet
  facet normal 0.509 -0.861 0
    outer loop
      vertex -2.75 -18.732 0
      vertex -1.892 -18.225 4.75
      vertex -2.75 -18.732 4.75
    endloop
  endfacet
  facet normal 0.454 -0.891 0
    outer loop
      vertex -1.892 -18.225 0
      vertex -1.004 -17.772 4.75
      vertex -1.892 -18.225 4.75
    endloop
  endfacet
  facet normal 0.397 -0.918 0
    outer loop
      vertex -1.004 -17.772 0
      vertex -0.089 -17.376 4.75
      vertex -1.004 -17.772 4.75
    endloop
  endfacet
  facet normal 0.339 -0.941 0
    outer loop
      vertex -0.089 -17.376 0
      vertex 0.848 -17.039 4.75
      vertex -0.089 -17.376 4.75
    endloop
  endfacet
  facet normal 1 0 0
    outer loop
      vertex 10.9 -17.128 0
      vertex 10.9 -12.25 4.75
      vertex 10.9 -17.128 4.75
    endloop
  endfacet
  facet normal -0.339 -0.941 0
    outer loop
      vertex 10.652 -17.039 0
      vertex 10.9 -17.128 4.75
      vertex 10.652 -17.039 4.75
    endloop
  endfacet
  facet normal 0.279 -0.96 0
    outer loop
      vertex 0.848 -17.039 0
      vertex 1.805 -16.761 4.75
      vertex 0.848 -17.039 4.75
    endloop
  endfacet
  facet normal -0.279 -0.96 0
    outer loop
      vertex 9.695 -16.761 0
      vertex 10.652 -17.039 4.75
      vertex 9.695 -16.761 4.75
    endloop
  endfacet
  facet normal 0.218 -0.976 0
    outer loop
      vertex 1.805 -16.761 0
      vertex 2.778 -16.544 4.75
      vertex 1.805 -16.761 4.75
    endloop
  endfacet
  facet normal -0.218 -0.976 0
    outer loop
      vertex 8.722 -16.544 0
      vertex 9.695 -16.761 4.75
      vertex 8.722 -16.544 4.75
    endloop
  endfacet
  facet normal 0.156 -0.988 0
    outer loop
      vertex 2.778 -16.544 0
      vertex 3.762 -16.388 4.75
      vertex 2.778 -16.544 4.75
    endloop
  endfacet
  facet normal -0.156 -0.988 0
    outer loop
      vertex 7.738 -16.388 0
      vertex 8.722 -16.544 4.75
      vertex 7.738 -16.388 4.75
    endloop
  endfacet
  facet normal 0.094 -0.996 0
    outer loop
      vertex 3.762 -16.388 0
      vertex 4.754 -16.294 4.75
      vertex 3.762 -16.388 4.75
    endloop
  endfacet
  facet normal -0.094 -0.996 0
    outer loop
      vertex 6.746 -16.294 0
      vertex 7.738 -16.388 4.75
      vertex 6.746 -16.294 4.75
    endloop
  endfacet
  facet normal 0.031 -1 0
    outer loop
      vertex 4.754 -16.294 0
      vertex 5.75 -16.262 4.75
      vertex 4.754 -16.294 4.75
    endloop
  endfacet
  facet normal -0.031 -1 0
    outer loop
      vertex 5.75 -16.262 0
      vertex 6.746 -16.294 4.75
      vertex 5.75 -16.262 4.75
    endloop
  endfacet
  facet normal 1 0 0
    outer loop
      vertex 10.9 -6 0
      vertex 10.9 -10.5 16.433
      vertex 10.9 -12.25 4.75
    endloop
  endfacet
  facet normal 0 -1 0
    outer loop
      vertex -20.4 -21.7 0
      vertex -15.65 -21.7 4.75
      vertex -20.4 -21.7 18.9
    endloop
  endfacet
  facet normal 0.06 0.998 0
    outer loop
      vertex 0 -8.25 0
      vertex -0.994 -8.19 14.99
      vertex 0 -8.25 14.99
    endloop
  endfacet
  facet normal -0.06 0.998 0
    outer loop
      vertex 0.994 -8.19 0
      vertex 0 -8.25 14.99
      vertex 0.994 -8.19 14.99
    endloop
  endfacet
  facet normal 0.18 0.984 0
    outer loop
      vertex -0.994 -8.19 0
      vertex -1.974 -8.01 14.99
      vertex -0.994 -8.19 14.99
    endloop
  endfacet
  facet normal -0.18 0.984 0
    outer loop
      vertex 1.974 -8.01 0
      vertex 0.994 -8.19 14.99
      vertex 1.974 -8.01 14.99
    endloop
  endfacet
  facet normal 0.298 0.955 0
    outer loop
      vertex -1.974 -8.01 0
      vertex -2.925 -7.714 14.99
      vertex -1.974 -8.01 14.99
    endloop
  endfacet
  facet normal -0.298 0.955 0
    outer loop
      vertex 2.925 -7.714 0
      vertex 1.974 -8.01 14.99
      vertex 2.925 -7.714 14.99
    endloop
  endfacet
  facet normal 0.41 0.912 0
    outer loop
      vertex -2.925 -7.714 0
      vertex -3.834 -7.305 14.99
      vertex -2.925 -7.714 14.99
    endloop
  endfacet
  facet normal -0.41 0.912 0
    outer loop
      vertex 3.834 -7.305 0
      vertex 2.925 -7.714 14.99
      vertex 3.834 -7.305 14.99
    endloop
  endfacet
  facet normal 0.517 0.856 0
    outer loop
      vertex -3.834 -7.305 0
      vertex -4.686 -6.79 14.99
      vertex -3.834 -7.305 14.99
    endloop
  endfacet
  facet normal -0.517 0.856 0
    outer loop
      vertex 4.686 -6.79 0
      vertex 3.834 -7.305 14.99
      vertex 4.686 -6.79 14.99
    endloop
  endfacet
  facet normal 0.617 0.787 0
    outer loop
      vertex -4.686 -6.79 0
      vertex -5.471 -6.175 14.99
      vertex -4.686 -6.79 14.99
    endloop
  endfacet
  facet normal -0.617 0.787 0
    outer loop
      vertex 5.471 -6.175 0
      vertex 4.686 -6.79 14.99
      vertex 5.471 -6.175 14.99
    endloop
  endfacet
  facet normal -0.707 0.707 0
    outer loop
      vertex 5.471 -6.175 0
      vertex 5.471 -6.175 14.99
      vertex 5.646 -6 14.99
    endloop
  endfacet
  facet normal 0.707 0.707 0
    outer loop
      vertex -5.646 -6 0
      vertex -5.646 -6 14.99
      vertex -5.471 -6.175 14.99
    endloop
  endfacet
  facet normal 0 1 0
    outer loop
      vertex -20.4 -6 0
      vertex -20.4 -6 18.9
      vertex -5.646 -6 14.99
    endloop
  endfacet
  facet normal 0 1 0
    outer loop
      vertex 10.9 -6 0
      vertex 5.646 -6 14.99
      vertex 10.9 -6 18.9
    endloop
  endfacet
  facet normal 1 0 0
    outer loop
      vertex 10.9 -6 0
      vertex 10.9 -6 18.9
      vertex 10.9 -10.5 16.433
    endloop
  endfacet
  facet normal -1 0 0
    outer loop
      vertex -20.4 -21.7 0
      vertex -20.4 -21.7 18.9
      vertex -20.4 -6 18.9
    endloop
  endfacet
  facet normal 0 0 1
    outer loop
      vertex -15.65 -21.7 4.75
      vertex -6.196 -21.7 4.75
      vertex -5.813 -21.266 4.75
    endloop
  endfacet
  facet normal 0 0 1
    outer loop
      vertex -15.65 -21.7 4.75
      vertex -5.813 -21.266 4.75
      vertex -15.65 -12.25 4.75
    endloop
  endfacet
  facet normal 0 0 1
    outer loop
      vertex -5.813 -21.266 4.75
      vertex -5.109 -20.562 4.75
      vertex -15.65 -12.25 4.75
    endloop
  endfacet
  facet normal 0 0 1
    outer loop
      vertex -5.109 -20.562 4.75
      vertex -4.361 -19.903 4.75
      vertex -15.65 -12.25 4.75
    endloop
  endfacet
  facet normal 0 0 1
    outer loop
      vertex -4.361 -19.903 4.75
      vertex -3.574 -19.292 4.75
      vertex -15.65 -12.25 4.75
    endloop
  endfacet
  facet normal 0 0 1
    outer loop
      vertex -3.574 -19.292 4.75
      vertex -2.75 -18.732 4.75
      vertex -15.65 -12.25 4.75
    endloop
  endfacet
  facet normal 0 0 1
    outer loop
      vertex -2.75 -18.732 4.75
      vertex -1.892 -18.225 4.75
      vertex -15.65 -12.25 4.75
    endloop
  endfacet
  facet normal 0 0 1
    outer loop
      vertex -1.892 -18.225 4.75
      vertex -1.004 -17.772 4.75
      vertex -15.65 -12.25 4.75
    endloop
  endfacet
  facet normal 0 0 1
    outer loop
      vertex -1.004 -17.772 4.75
      vertex -0.089 -17.376 4.75
      vertex -15.65 -12.25 4.75
    endloop
  endfacet
  facet normal 0 0 1
    outer loop
      vertex -0.089 -17.376 4.75
      vertex 0.848 -17.039 4.75
      vertex -15.65 -12.25 4.75
    endloop
  endfacet
  facet normal 0 0 1
    outer loop
      vertex 10.9 -17.128 4.75
      vertex 10.9 -12.25 4.75
      vertex 10.652 -17.039 4.75
    endloop
  endfacet
  facet normal 0 0 1
    outer loop
      vertex 0.848 -17.039 4.75
      vertex 1.805 -16.761 4.75
      vertex -15.65 -12.25 4.75
    endloop
  endfacet
  facet normal 0 0 1
    outer loop
      vertex 10.652 -17.039 4.75
      vertex 10.9 -12.25 4.75
      vertex 9.695 -16.761 4.75
    endloop
  endfacet
  facet normal 0 0 1
    outer loop
      vertex 1.805 -16.761 4.75
      vertex 2.778 -16.544 4.75
      vertex 10.9 -12.25 4.75
    endloop
  endfacet
  facet normal 0 0 1
    outer loop
      vertex 9.695 -16.761 4.75
      vertex 10.9 -12.25 4.75
      vertex 8.722 -16.544 4.75
    endloop
  endfacet
  facet normal 0 0 1
    outer loop
      vertex 1.805 -16.761 4.75
      vertex 10.9 -12.25 4.75
      vertex -15.65 -12.25 4.75
    endloop
  endfacet
  facet normal 0 0 1
    outer loop
      vertex 2.778 -16.544 4.75
      vertex 3.762 -16.388 4.75
      vertex 10.9 -12.25 4.75
    endloop
  endfacet
  facet normal 0 0 1
    outer loop
      vertex 8.722 -16.544 4.75
      vertex 10.9 -12.25 4.75
      vertex 7.738 -16.388 4.75
    endloop
  endfacet
  facet normal 0 0 1
    outer loop
      vertex 3.762 -16.388 4.75
      vertex 4.754 -16.294 4.75
      vertex 10.9 -12.25 4.75
    endloop
  endfacet
  facet normal 0 0 1
    outer loop
      vertex 7.738 -16.388 4.75
      vertex 10.9 -12.25 4.75
      vertex 6.746 -16.294 4.75
    endloop
  endfacet
  facet normal 0 0 1
    outer loop
      vertex 4.754 -16.294 4.75
      vertex 5.75 -16.262 4.75
      vertex 10.9 -12.25 4.75
    endloop
  endfacet
  facet normal 0 0 1
    outer loop
      vertex 6.746 -16.294 4.75
      vertex 10.9 -12.25 4.75
      vertex 5.75 -16.262 4.75
    endloop
  endfacet
  facet normal 0 -1 0
    outer loop
      vertex -15.65 -12.25 4.75
      vertex 10.9 -12.25 4.75
      vertex 2.351 -12.25 15.688
    endloop
  endfacet
  facet normal 1 0 0
    outer loop
      vertex -15.65 -21.7 4.75
      vertex -15.65 -12.25 4.75
      vertex -15.65 -21.7 18.9
    endloop
  endfacet
  facet normal 0 -1 0
    outer loop
      vertex 10.9 -12.25 4.75
      vertex 6.244 -12.25 15.161
      vertex 5.256 -12.25 15.161
    endloop
  endfacet
  facet normal 0 -1 0
    outer loop
      vertex 10.9 -12.25 4.75
      vertex 5.256 -12.25 15.161
      vertex 4.273 -12.25 15.25
    endloop
  endfacet
  facet normal 0 -1 0
    outer loop
      vertex 10.9 -12.25 4.75
      vertex 7.227 -12.25 15.25
      vertex 6.244 -12.25 15.161
    endloop
  endfacet
  facet normal 0 -1 0
    outer loop
      vertex 10.9 -12.25 4.75
      vertex 4.273 -12.25 15.25
      vertex 3.302 -12.25 15.426
    endloop
  endfacet
  facet normal 0 -1 0
    outer loop
      vertex 10.9 -12.25 4.75
      vertex 8.198 -12.25 15.426
      vertex 7.227 -12.25 15.25
    endloop
  endfacet
  facet normal 0 -1 0
    outer loop
      vertex 10.9 -12.25 4.75
      vertex 3.302 -12.25 15.426
      vertex 2.351 -12.25 15.688
    endloop
  endfacet
  facet normal 0 -1 0
    outer loop
      vertex 10.9 -12.25 4.75
      vertex 9.149 -12.25 15.688
      vertex 8.198 -12.25 15.426
    endloop
  endfacet
  facet normal 0 -1 0
    outer loop
      vertex -15.65 -12.25 4.75
      vertex 2.351 -12.25 15.688
      vertex 1.427 -12.25 16.035
    endloop
  endfacet
  facet normal 0 -1 0
    outer loop
      vertex 10.9 -12.25 4.75
      vertex 10.073 -12.25 16.035
      vertex 9.149 -12.25 15.688
    endloop
  endfacet
  facet normal 0 -1 0
    outer loop
      vertex 10.9 -12.25 4.75
      vertex 10.9 -12.25 16.433
      vertex 10.073 -12.25 16.035
    endloop
  endfacet
  facet normal 0 -1 0
    outer loop
      vertex -15.65 -12.25 4.75
      vertex 1.427 -12.25 16.035
      vertex 0.537 -12.25 16.463
    endloop
  endfacet
  facet normal 1 0 0
    outer loop
      vertex 10.9 -12.25 4.75
      vertex 10.9 -10.5 16.433
      vertex 10.9 -12.25 16.433
    endloop
  endfacet
  facet normal 0 -1 0
    outer loop
      vertex -15.65 -12.25 4.75
      vertex 0.537 -12.25 16.463
      vertex -0.31 -12.25 16.97
    endloop
  endfacet
  facet normal 0 -1 0
    outer loop
      vertex -15.65 -12.25 4.75
      vertex -0.31 -12.25 16.97
      vertex -1.108 -12.25 17.55
    endloop
  endfacet
  facet normal 0 -1 0
    outer loop
      vertex -15.65 -12.25 4.75
      vertex -1.108 -12.25 17.55
      vertex -1.852 -12.25 18.199
    endloop
  endfacet
  facet normal 0 -1 0
    outer loop
      vertex -15.65 -12.25 4.75
      vertex -1.852 -12.25 18.199
      vertex -15.65 -12.25 18.9
    endloop
  endfacet
  facet normal 0 -1 0
    outer loop
      vertex -15.65 -21.7 4.75
      vertex -15.65 -21.7 18.9
      vertex -20.4 -21.7 18.9
    endloop
  endfacet
  facet normal 1 0 0
    outer loop
      vertex -15.65 -12.25 4.75
      vertex -15.65 -12.25 18.9
      vertex -15.65 -21.7 18.9
    endloop
  endfacet
  facet normal 0 0 -1
    outer loop
      vertex 0 -8.25 14.99
      vertex -0.994 -8.19 14.99
      vertex 5.646 -6 14.99
    endloop
  endfacet
  facet normal 0 0 -1
    outer loop
      vertex 0 -8.25 14.99
      vertex 5.646 -6 14.99
      vertex 0.994 -8.19 14.99
    endloop
  endfacet
  facet normal 0 0 -1
    outer loop
      vertex -0.994 -8.19 14.99
      vertex -1.974 -8.01 14.99
      vertex 5.646 -6 14.99
    endloop
  endfacet
  facet normal 0 0 -1
    outer loop
      vertex 0.994 -8.19 14.99
      vertex 5.646 -6 14.99
      vertex 1.974 -8.01 14.99
    endloop
  endfacet
  facet normal 0 0 -1
    outer loop
      vertex -1.974 -8.01 14.99
      vertex -2.925 -7.714 14.99
      vertex 5.646 -6 14.99
    endloop
  endfacet
  facet normal 0 0 -1
    outer loop
      vertex 1.974 -8.01 14.99
      vertex 5.646 -6 14.99
      vertex 2.925 -7.714 14.99
    endloop
  endfacet
  facet normal 0 0 -1
    outer loop
      vertex -2.925 -7.714 14.99
      vertex -3.834 -7.305 14.99
      vertex 5.646 -6 14.99
    endloop
  endfacet
  facet normal 0 0 -1
    outer loop
      vertex 2.925 -7.714 14.99
      vertex 5.646 -6 14.99
      vertex 3.834 -7.305 14.99
    endloop
  endfacet
  facet normal 0 0 -1
    outer loop
      vertex -3.834 -7.305 14.99
      vertex -4.686 -6.79 14.99
      vertex 5.646 -6 14.99
    endloop
  endfacet
  facet normal 0 0 -1
    outer loop
      vertex 3.834 -7.305 14.99
      vertex 5.646 -6 14.99
      vertex 4.686 -6.79 14.99
    endloop
  endfacet
  facet normal 0 0 -1
    outer loop
      vertex -4.686 -6.79 14.99
      vertex -5.471 -6.175 14.99
      vertex -5.646 -6 14.99
    endloop
  endfacet
  facet normal 0 0 -1
    outer loop
      vertex 4.686 -6.79 14.99
      vertex 5.646 -6 14.99
      vertex 5.471 -6.175 14.99
    endloop
  endfacet
  facet normal 0 0 -1
    outer loop
      vertex -4.686 -6.79 14.99
      vertex -5.646 -6 14.99
      vertex 5.646 -6 14.99
    endloop
  endfacet
  facet normal 0 1 0
    outer loop
      vertex -5.646 -6 14.99
      vertex 10.9 -6 18.9
      vertex 5.646 -6 14.99
    endloop
  endfacet
  facet normal 0 1 0
    outer loop
      vertex -5.646 -6 14.99
      vertex -20.4 -6 18.9
      vertex 10.9 -6 18.9
    endloop
  endfacet
  facet normal 0 0 1
    outer loop
      vertex 5.256 -12.25 15.161
      vertex 6.244 -12.25 15.161
      vertex 5.256 -10.5 15.161
    endloop
  endfacet
  facet normal 0 0 1
    outer loop
      vertex 6.244 -12.25 15.161
      vertex 6.244 -10.5 15.161
      vertex 5.256 -10.5 15.161
    endloop
  endfacet
  facet normal -0.09 0 0.996
    outer loop
      vertex 6.244 -12.25 15.161
      vertex 7.227 -12.25 15.25
      vertex 6.244 -10.5 15.161
    endloop
  endfacet
  facet normal 0.09 0 0.996
    outer loop
      vertex 5.256 -12.25 15.161
      vertex 5.256 -10.5 15.161
      vertex 4.273 -10.5 15.25
    endloop
  endfacet
  facet normal 0 -1 0
    outer loop
      vertex 5.256 -10.5 15.161
      vertex 6.244 -10.5 15.161
      vertex 10.9 -10.5 18.9
    endloop
  endfacet
  facet normal 0.09 0 0.996
    outer loop
      vertex 5.256 -12.25 15.161
      vertex 4.273 -10.5 15.25
      vertex 4.273 -12.25 15.25
    endloop
  endfacet
  facet normal -0.09 0 0.996
    outer loop
      vertex 6.244 -10.5 15.161
      vertex 7.227 -12.25 15.25
      vertex 7.227 -10.5 15.25
    endloop
  endfacet
  facet normal 0 -1 0
    outer loop
      vertex 5.256 -10.5 15.161
      vertex 10.9 -10.5 18.9
      vertex 4.273 -10.5 15.25
    endloop
  endfacet
  facet normal 0 -1 0
    outer loop
      vertex 6.244 -10.5 15.161
      vertex 7.227 -10.5 15.25
      vertex 10.9 -10.5 18.9
    endloop
  endfacet
  facet normal -0.179 0 0.984
    outer loop
      vertex 7.227 -12.25 15.25
      vertex 8.198 -12.25 15.426
      vertex 7.227 -10.5 15.25
    endloop
  endfacet
  facet normal 0.179 0 0.984
    outer loop
      vertex 4.273 -12.25 15.25
      vertex 4.273 -10.5 15.25
      vertex 3.302 -10.5 15.426
    endloop
  endfacet
  facet normal 0.179 0 0.984
    outer loop
      vertex 4.273 -12.25 15.25
      vertex 3.302 -10.5 15.426
      vertex 3.302 -12.25 15.426
    endloop
  endfacet
  facet normal -0.179 0 0.984
    outer loop
      vertex 7.227 -10.5 15.25
      vertex 8.198 -12.25 15.426
      vertex 8.198 -10.5 15.426
    endloop
  endfacet
  facet normal 0 -1 0
    outer loop
      vertex 4.273 -10.5 15.25
      vertex 10.9 -10.5 18.9
      vertex 3.302 -10.5 15.426
    endloop
  endfacet
  facet normal 0 -1 0
    outer loop
      vertex 7.227 -10.5 15.25
      vertex 8.198 -10.5 15.426
      vertex 10.9 -10.5 18.9
    endloop
  endfacet
  facet normal -0.266 0 0.964
    outer loop
      vertex 8.198 -12.25 15.426
      vertex 9.149 -12.25 15.688
      vertex 8.198 -10.5 15.426
    endloop
  endfacet
  facet normal 0.266 0 0.964
    outer loop
      vertex 3.302 -12.25 15.426
      vertex 3.302 -10.5 15.426
      vertex 2.351 -10.5 15.688
    endloop
  endfacet
  facet normal 0.266 0 0.964
    outer loop
      vertex 3.302 -12.25 15.426
      vertex 2.351 -10.5 15.688
      vertex 2.351 -12.25 15.688
    endloop
  endfacet
  facet normal -0.266 0 0.964
    outer loop
      vertex 8.198 -10.5 15.426
      vertex 9.149 -12.25 15.688
      vertex 9.149 -10.5 15.688
    endloop
  endfacet
  facet normal 0 -1 0
    outer loop
      vertex 3.302 -10.5 15.426
      vertex 10.9 -10.5 18.9
      vertex 2.351 -10.5 15.688
    endloop
  endfacet
  facet normal 0 -1 0
    outer loop
      vertex 8.198 -10.5 15.426
      vertex 9.149 -10.5 15.688
      vertex 10.9 -10.5 18.9
    endloop
  endfacet
  facet normal -0.351 0 0.936
    outer loop
      vertex 9.149 -12.25 15.688
      vertex 10.073 -12.25 16.035
      vertex 9.149 -10.5 15.688
    endloop
  endfacet
  facet normal 0.351 0 0.936
    outer loop
      vertex 2.351 -12.25 15.688
      vertex 2.351 -10.5 15.688
      vertex 1.427 -10.5 16.035
    endloop
  endfacet
  facet normal 0.351 0 0.936
    outer loop
      vertex 2.351 -12.25 15.688
      vertex 1.427 -10.5 16.035
      vertex 1.427 -12.25 16.035
    endloop
  endfacet
  facet normal -0.351 0 0.936
    outer loop
      vertex 9.149 -10.5 15.688
      vertex 10.073 -12.25 16.035
      vertex 10.073 -10.5 16.035
    endloop
  endfacet
  facet normal 0 -1 0
    outer loop
      vertex 2.351 -10.5 15.688
      vertex 10.9 -10.5 18.9
      vertex 1.427 -10.5 16.035
    endloop
  endfacet
  facet normal 0 -1 0
    outer loop
      vertex 9.149 -10.5 15.688
      vertex 10.073 -10.5 16.035
      vertex 10.9 -10.5 18.9
    endloop
  endfacet
  facet normal -0.434 0 0.901
    outer loop
      vertex 10.073 -12.25 16.035
      vertex 10.9 -12.25 16.433
      vertex 10.073 -10.5 16.035
    endloop
  endfacet
  facet normal 0.434 0 0.901
    outer loop
      vertex 1.427 -12.25 16.035
      vertex 1.427 -10.5 16.035
      vertex 0.537 -10.5 16.463
    endloop
  endfacet
  facet normal -0.434 0 0.901
    outer loop
      vertex 10.073 -10.5 16.035
      vertex 10.9 -12.25 16.433
      vertex 10.9 -10.5 16.433
    endloop
  endfacet
  facet normal 0 -1 0
    outer loop
      vertex 10.073 -10.5 16.035
      vertex 10.9 -10.5 16.433
      vertex 10.9 -10.5 18.9
    endloop
  endfacet
  facet normal 0.434 0 0.901
    outer loop
      vertex 1.427 -12.25 16.035
      vertex 0.537 -10.5 16.463
      vertex 0.537 -12.25 16.463
    endloop
  endfacet
  facet normal 0 -1 0
    outer loop
      vertex 1.427 -10.5 16.035
      vertex 10.9 -10.5 18.9
      vertex 0.537 -10.5 16.463
    endloop
  endfacet
  facet normal 1 0 0
    outer loop
      vertex 10.9 -10.5 16.433
      vertex 10.9 -6 18.9
      vertex 10.9 -10.5 18.9
    endloop
  endfacet
  facet normal 0.513 0 0.858
    outer loop
      vertex 0.537 -12.25 16.463
      vertex 0.537 -10.5 16.463
      vertex -0.31 -10.5 16.97
    endloop
  endfacet
  facet normal 0.513 0 0.858
    outer loop
      vertex 0.537 -12.25 16.463
      vertex -0.31 -10.5 16.97
      vertex -0.31 -12.25 16.97
    endloop
  endfacet
  facet normal 0 -1 0
    outer loop
      vertex 0.537 -10.5 16.463
      vertex 10.9 -10.5 18.9
      vertex -0.31 -10.5 16.97
    endloop
  endfacet
  facet normal 0.588 0 0.809
    outer loop
      vertex -0.31 -12.25 16.97
      vertex -0.31 -10.5 16.97
      vertex -1.108 -10.5 17.55
    endloop
  endfacet
  facet normal 0.588 0 0.809
    outer loop
      vertex -0.31 -12.25 16.97
      vertex -1.108 -10.5 17.55
      vertex -1.108 -12.25 17.55
    endloop
  endfacet
  facet normal 0 -1 0
    outer loop
      vertex -0.31 -10.5 16.97
      vertex 10.9 -10.5 18.9
      vertex -1.108 -10.5 17.55
    endloop
  endfacet
  facet normal 0.658 0 0.753
    outer loop
      vertex -1.108 -12.25 17.55
      vertex -1.108 -10.5 17.55
      vertex -1.852 -10.5 18.199
    endloop
  endfacet
  facet normal 0.658 0 0.753
    outer loop
      vertex -1.108 -12.25 17.55
      vertex -1.852 -10.5 18.199
      vertex -1.852 -12.25 18.199
    endloop
  endfacet
  facet normal 0 -1 0
    outer loop
      vertex -1.108 -10.5 17.55
      vertex 10.9 -10.5 18.9
      vertex -1.852 -10.5 18.199
    endloop
  endfacet
  facet normal 0.723 0 0.691
    outer loop
      vertex -1.852 -12.25 18.199
      vertex -1.852 -10.5 18.199
      vertex -2.522 -12.25 18.9
    endloop
  endfacet
  facet normal 0 -1 0
    outer loop
      vertex -1.852 -12.25 18.199
      vertex -2.522 -12.25 18.9
      vertex -15.65 -12.25 18.9
    endloop
  endfacet
  facet normal 0.723 0 0.691
    outer loop
      vertex -1.852 -10.5 18.199
      vertex -2.522 -10.5 18.9
      vertex -2.522 -12.25 18.9
    endloop
  endfacet
  facet normal 0 -1 0
    outer loop
      vertex -1.852 -10.5 18.199
      vertex 10.9 -10.5 18.9
      vertex -2.522 -10.5 18.9
    endloop
  endfacet
  facet normal 0 0 1
    outer loop
      vertex -20.4 -21.7 18.9
      vertex -15.65 -21.7 18.9
      vertex -15.65 -12.25 18.9
    endloop
  endfacet
  facet normal 0 0 1
    outer loop
      vertex -20.4 -21.7 18.9
      vertex -15.65 -12.25 18.9
      vertex -20.4 -6 18.9
    endloop
  endfacet
  facet normal 0 0 1
    outer loop
      vertex -15.65 -12.25 18.9
      vertex -2.522 -12.25 18.9
      vertex -2.522 -10.5 18.9
    endloop
  endfacet
  facet normal 0 0 1
    outer loop
      vertex -15.65 -12.25 18.9
      vertex -2.522 -10.5 18.9
      vertex -20.4 -6 18.9
    endloop
  endfacet
  facet normal 0 0 1
    outer loop
      vertex -2.522 -10.5 18.9
      vertex 10.9 -10.5 18.9
      vertex 10.9 -6 18.9
    endloop
  endfacet
  facet normal 0 0 1
    outer loop
      vertex -2.522 -10.5 18.9
      vertex 10.9 -6 18.9
      vertex -20.4 -6 18.9
    endloop
  endfacet
endsolid Model
