solid Model
  facet normal 0 0 -1
    outer loop
      vertex 0.37 -12.495 0
      vertex -1.11 -12.451 0
      vertex -0.649 -3.683 0
    endloop
  endfacet
  facet normal 0 0 -1
    outer loop
      vertex 0.37 -12.495 0
      vertex 0.649 -3.683 0
      vertex 1.846 -12.363 0
    endloop
  endfacet
  facet normal 0 0 -1
    outer loop
      vertex 0.37 -12.495 0
      vertex -0.649 -3.683 0
      vertex 0.649 -3.683 0
    endloop
  endfacet
  facet normal 0 0 -1
    outer loop
      vertex -1.11 -12.451 0
      vertex -2.575 -12.232 0
      vertex -0.649 -3.683 0
    endloop
  endfacet
  facet normal 0 0 -1
    outer loop
      vertex 1.846 -12.363 0
      vertex 0.649 -3.683 0
      vertex 3.295 -12.058 0
    endloop
  endfacet
  facet normal 0 0 -1
    outer loop
      vertex -2.575 -12.232 0
      vertex -4.003 -11.842 0
      vertex -0.649 -3.683 0
    endloop
  endfacet
  facet normal 0 0 -1
    outer loop
      vertex 3.295 -12.058 0
      vertex 1.87 -3.239 0
      vertex 4.698 -11.584 0
    endloop
  endfacet
  facet normal 0 0 -1
    outer loop
      vertex 3.295 -12.058 0
      vertex 0.649 -3.683 0
      vertex 1.861 -3.242 0
    endloop
  endfacet
  facet normal 0 0 -1
    outer loop
      vertex 3.295 -12.058 0
      vertex 1.861 -3.242 0
      vertex 1.87 -3.239 0
    endloop
  endfacet
  facet normal 0 0 -1
    outer loop
      vertex -4.003 -11.842 0
      vertex -5.376 -11.285 0
      vertex -1.861 -3.242 0
    endloop
  endfacet
  facet normal 0 0 -1
    outer loop
      vertex -4.003 -11.842 0
      vertex -1.861 -3.242 0
      vertex -0.649 -3.683 0
    endloop
  endfacet
  facet normal 0 0 -1
    outer loop
      vertex 4.698 -11.584 0
      vertex 1.87 -3.239 0
      vertex 6.035 -10.947 0
    endloop
  endfacet
  facet normal 0 0 -1
    outer loop
      vertex -5.376 -11.285 0
      vertex -6.673 -10.57 0
      vertex -1.87 -3.239 0
    endloop
  endfacet
  facet normal 0 0 -1
    outer loop
      vertex -5.376 -11.285 0
      vertex -1.87 -3.239 0
      vertex -1.861 -3.242 0
    endloop
  endfacet
  facet normal 0 0 -1
    outer loop
      vertex 6.035 -10.947 0
      vertex 4 -2.86 0
      vertex 7.287 -10.156 0
    endloop
  endfacet
  facet normal 0 0 -1
    outer loop
      vertex 6.035 -10.947 0
      vertex 1.87 -3.239 0
      vertex 4 -2.86 0
    endloop
  endfacet
  facet normal 0 0 -1
    outer loop
      vertex -6.673 -10.57 0
      vertex -7.876 -9.707 0
      vertex -1.877 -3.233 0
    endloop
  endfacet
  facet normal 0 0 -1
    outer loop
      vertex -6.673 -10.57 0
      vertex -1.877 -3.233 0
      vertex -1.87 -3.239 0
    endloop
  endfacet
  facet normal 0 0 -1
    outer loop
      vertex 7.287 -10.156 0
      vertex 6.64 -2.86 0
      vertex 8.437 -9.223 0
    endloop
  endfacet
  facet normal 0 0 -1
    outer loop
      vertex 7.287 -10.156 0
      vertex 4 -2.86 0
      vertex 6.64 -2.86 0
    endloop
  endfacet
  facet normal 0 0 -1
    outer loop
      vertex -7.876 -9.707 0
      vertex -8.969 -8.707 0
      vertex -2.865 -2.404 0
    endloop
  endfacet
  facet normal 0 0 -1
    outer loop
      vertex -7.876 -9.707 0
      vertex -2.865 -2.404 0
      vertex -1.877 -3.233 0
    endloop
  endfacet
  facet normal 0 0 -1
    outer loop
      vertex 8.437 -9.223 0
      vertex 6.64 -2.86 0
      vertex 9.469 -8.16 0
    endloop
  endfacet
  facet normal 0 0 -1
    outer loop
      vertex -8.969 -8.707 0
      vertex -9.936 -7.585 0
      vertex -2.865 -2.404 0
    endloop
  endfacet
  facet normal 0 0 -1
    outer loop
      vertex 9.469 -8.16 0
      vertex 6.64 -2.86 0
      vertex 10.368 -6.983 0
    endloop
  endfacet
  facet normal 0 0 -1
    outer loop
      vertex -9.936 -7.585 0
      vertex -10.763 -6.357 0
      vertex -2.865 -2.404 0
    endloop
  endfacet
  facet normal 0 0 -1
    outer loop
      vertex 10.368 -6.983 0
      vertex 6.64 -2.86 0
      vertex 11.121 -5.708 0
    endloop
  endfacet
  facet normal 0 0 -1
    outer loop
      vertex -10.763 -6.357 0
      vertex -11.439 -5.039 0
      vertex -3.51 -1.287 0
    endloop
  endfacet
  facet normal 0 0 -1
    outer loop
      vertex -10.763 -6.357 0
      vertex -3.51 -1.287 0
      vertex -2.865 -2.404 0
    endloop
  endfacet
  facet normal 0 0 -1
    outer loop
      vertex 11.121 -5.708 0
      vertex 6.64 -2.86 0
      vertex 11.718 -4.353 0
    endloop
  endfacet
  facet normal 0 0 -1
    outer loop
      vertex -11.439 -5.039 0
      vertex -11.955 -3.651 0
      vertex -3.514 -1.279 0
    endloop
  endfacet
  facet normal 0 0 -1
    outer loop
      vertex -11.439 -5.039 0
      vertex -3.514 -1.279 0
      vertex -3.51 -1.287 0
    endloop
  endfacet
  facet normal 0 0 -1
    outer loop
      vertex 11.718 -4.353 0
      vertex 6.64 -2.86 0
      vertex 12.15 -2.936 0
    endloop
  endfacet
  facet normal 0 0 -1
    outer loop
      vertex -11.955 -3.651 0
      vertex -12.303 -2.211 0
      vertex -3.516 -1.27 0
    endloop
  endfacet
  facet normal 0 0 -1
    outer loop
      vertex -11.955 -3.651 0
      vertex -3.516 -1.27 0
      vertex -3.514 -1.279 0
    endloop
  endfacet
  facet normal 0 0 -1
    outer loop
      vertex 1.87 -3.239 0
      vertex 1.877 -3.233 0
      vertex 4 -2.86 0
    endloop
  endfacet
  facet normal 0 0 -1
    outer loop
      vertex 1.877 -3.233 0
      vertex 2 -3.13 0
      vertex 4 -2.86 0
    endloop
  endfacet
  facet normal 0 0 -1
    outer loop
      vertex 2 -3.13 0
      vertex 4 2.86 0
      vertex 4 -2.86 0
    endloop
  endfacet
  facet normal 0 0 -1
    outer loop
      vertex 2 -3.13 0
      vertex 2 3.13 0
      vertex 4 2.86 0
    endloop
  endfacet
  facet normal 0 0 -1
    outer loop
      vertex 12.15 -2.936 0
      vertex 6.64 -2.86 0
      vertex 12.412 -1.478 0
    endloop
  endfacet
  facet normal 0 0 -1
    outer loop
      vertex 6.64 -2.86 0
      vertex 12.5 0 0
      vertex 12.412 -1.478 0
    endloop
  endfacet
  facet normal 0 0 -1
    outer loop
      vertex 6.64 -2.86 0
      vertex 6.64 2.86 0
      vertex 12.5 0 0
    endloop
  endfacet
  facet normal 0 0 -1
    outer loop
      vertex -12.303 -2.211 0
      vertex -3.74 0 0
      vertex -3.516 -1.27 0
    endloop
  endfacet
  facet normal 0 0 -1
    outer loop
      vertex -12.303 -2.211 0
      vertex -12.478 -0.741 0
      vertex -3.74 0 0
    endloop
  endfacet
  facet normal 0 0 -1
    outer loop
      vertex -12.478 -0.741 0
      vertex -12.478 0.741 0
      vertex -3.74 0 0
    endloop
  endfacet
  facet normal 0 0 -1
    outer loop
      vertex -3.74 0 0
      vertex -12.478 0.741 0
      vertex -12.303 2.211 0
    endloop
  endfacet
  facet normal 0 0 -1
    outer loop
      vertex -3.74 0 0
      vertex -12.303 2.211 0
      vertex -3.516 1.27 0
    endloop
  endfacet
  facet normal 0 0 -1
    outer loop
      vertex 12.5 0 0
      vertex 6.64 2.86 0
      vertex 12.412 1.478 0
    endloop
  endfacet
  facet normal 0 0 -1
    outer loop
      vertex -3.516 1.27 0
      vertex -11.955 3.651 0
      vertex -3.514 1.279 0
    endloop
  endfacet
  facet normal 0 0 -1
    outer loop
      vertex -3.516 1.27 0
      vertex -12.303 2.211 0
      vertex -11.955 3.651 0
    endloop
  endfacet
  facet normal 0 0 -1
    outer loop
      vertex -3.514 1.279 0
      vertex -11.439 5.039 0
      vertex -3.51 1.287 0
    endloop
  endfacet
  facet normal 0 0 -1
    outer loop
      vertex -3.514 1.279 0
      vertex -11.955 3.651 0
      vertex -11.439 5.039 0
    endloop
  endfacet
  facet normal 0 0 -1
    outer loop
      vertex -3.51 1.287 0
      vertex -10.763 6.357 0
      vertex -2.865 2.404 0
    endloop
  endfacet
  facet normal 0 0 -1
    outer loop
      vertex -3.51 1.287 0
      vertex -11.439 5.039 0
      vertex -10.763 6.357 0
    endloop
  endfacet
  facet normal 0 0 -1
    outer loop
      vertex 12.412 1.478 0
      vertex 6.64 2.86 0
      vertex 12.15 2.936 0
    endloop
  endfacet
  facet normal 0 0 -1
    outer loop
      vertex -2.865 2.404 0
      vertex -7.876 9.707 0
      vertex -1.877 3.233 0
    endloop
  endfacet
  facet normal 0 0 -1
    outer loop
      vertex -2.865 2.404 0
      vertex -10.763 6.357 0
      vertex -9.936 7.585 0
    endloop
  endfacet
  facet normal 0 0 -1
    outer loop
      vertex -2.865 2.404 0
      vertex -9.936 7.585 0
      vertex -8.969 8.707 0
    endloop
  endfacet
  facet normal 0 0 -1
    outer loop
      vertex -2.865 2.404 0
      vertex -8.969 8.707 0
      vertex -7.876 9.707 0
    endloop
  endfacet
  facet normal 0 0 -1
    outer loop
      vertex 4 2.86 0
      vertex 7.287 10.156 0
      vertex 6.64 2.86 0
    endloop
  endfacet
  facet normal 0 0 -1
    outer loop
      vertex 6.64 2.86 0
      vertex 11.718 4.353 0
      vertex 12.15 2.936 0
    endloop
  endfacet
  facet normal 0 0 -1
    outer loop
      vertex 4 2.86 0
      vertex 2 3.13 0
      vertex 1.877 3.233 0
    endloop
  endfacet
  facet normal 0 0 -1
    outer loop
      vertex 4 2.86 0
      vertex 1.877 3.233 0
      vertex 1.87 3.239 0
    endloop
  endfacet
  facet normal 0 0 -1
    outer loop
      vertex 4 2.86 0
      vertex 1.87 3.239 0
      vertex 6.035 10.947 0
    endloop
  endfacet
  facet normal 0 0 -1
    outer loop
      vertex 6.64 2.86 0
      vertex 11.121 5.708 0
      vertex 11.718 4.353 0
    endloop
  endfacet
  facet normal 0 0 -1
    outer loop
      vertex 6.64 2.86 0
      vertex 10.368 6.983 0
      vertex 11.121 5.708 0
    endloop
  endfacet
  facet normal 0 0 -1
    outer loop
      vertex 6.64 2.86 0
      vertex 9.469 8.16 0
      vertex 10.368 6.983 0
    endloop
  endfacet
  facet normal 0 0 -1
    outer loop
      vertex 6.64 2.86 0
      vertex 8.437 9.223 0
      vertex 9.469 8.16 0
    endloop
  endfacet
  facet normal 0 0 -1
    outer loop
      vertex 6.64 2.86 0
      vertex 7.287 10.156 0
      vertex 8.437 9.223 0
    endloop
  endfacet
  facet normal 0 0 -1
    outer loop
      vertex 4 2.86 0
      vertex 6.035 10.947 0
      vertex 7.287 10.156 0
    endloop
  endfacet
  facet normal 0 0 -1
    outer loop
      vertex -1.877 3.233 0
      vertex -6.673 10.57 0
      vertex -1.87 3.239 0
    endloop
  endfacet
  facet normal 0 0 -1
    outer loop
      vertex -1.877 3.233 0
      vertex -7.876 9.707 0
      vertex -6.673 10.57 0
    endloop
  endfacet
  facet normal 0 0 -1
    outer loop
      vertex -1.87 3.239 0
      vertex -5.376 11.285 0
      vertex -1.861 3.242 0
    endloop
  endfacet
  facet normal 0 0 -1
    outer loop
      vertex 1.87 3.239 0
      vertex 1.861 3.242 0
      vertex 4.698 11.584 0
    endloop
  endfacet
  facet normal 0 0 -1
    outer loop
      vertex -1.87 3.239 0
      vertex -6.673 10.57 0
      vertex -5.376 11.285 0
    endloop
  endfacet
  facet normal 0 0 -1
    outer loop
      vertex 1.87 3.239 0
      vertex 4.698 11.584 0
      vertex 6.035 10.947 0
    endloop
  endfacet
  facet normal 0 0 -1
    outer loop
      vertex 1.861 3.242 0
      vertex 0.649 3.683 0
      vertex 4.698 11.584 0
    endloop
  endfacet
  facet normal 0 0 -1
    outer loop
      vertex -1.861 3.242 0
      vertex -4.003 11.842 0
      vertex -0.649 3.683 0
    endloop
  endfacet
  facet normal 0 0 -1
    outer loop
      vertex -1.861 3.242 0
      vertex -5.376 11.285 0
      vertex -4.003 11.842 0
    endloop
  endfacet
  facet normal 0 0 -1
    outer loop
      vertex -0.649 3.683 0
      vertex 0.37 12.495 0
      vertex 0.649 3.683 0
    endloop
  endfacet
  facet normal 0 0 -1
    outer loop
      vertex 0.649 3.683 0
      vertex 3.295 12.058 0
      vertex 4.698 11.584 0
    endloop
  endfacet
  facet normal 0 0 -1
    outer loop
      vertex -0.649 3.683 0
      vertex -4.003 11.842 0
      vertex -2.575 12.232 0
    endloop
  endfacet
  facet normal 0 0 -1
    outer loop
      vertex 0.649 3.683 0
      vertex 1.846 12.363 0
      vertex 3.295 12.058 0
    endloop
  endfacet
  facet normal 0 0 -1
    outer loop
      vertex -0.649 3.683 0
      vertex -2.575 12.232 0
      vertex -1.11 12.451 0
    endloop
  endfacet
  facet normal 0 0 -1
    outer loop
      vertex 0.649 3.683 0
      vertex 0.37 12.495 0
      vertex 1.846 12.363 0
    endloop
  endfacet
  facet normal 0 0 -1
    outer loop
      vertex -0.649 3.683 0
      vertex -1.11 12.451 0
      vertex 0.37 12.495 0
    endloop
  endfacet
  facet normal -0.576 0.688 -0.442
    outer loop
      vertex 1.87 -3.239 0
      vertex 2 -2.449 1.059
      vertex 1.877 -3.233 0
    endloop
  endfacet
  facet normal -0.577 0.687 -0.442
    outer loop
      vertex 1.877 -3.233 0
      vertex 2 -2.449 1.059
      vertex 2 -3.13 0
    endloop
  endfacet
  facet normal -1 0 0
    outer loop
      vertex 2 -3.13 0
      vertex 2 -2.449 1.059
      vertex 2 3.13 0
    endloop
  endfacet
  facet normal -0.577 -0.687 -0.442
    outer loop
      vertex 2 3.13 0
      vertex 2 2.449 1.059
      vertex 1.877 3.233 0
    endloop
  endfacet
  facet normal -0.576 -0.688 -0.442
    outer loop
      vertex 1.877 3.233 0
      vertex 2 2.449 1.059
      vertex 1.87 3.239 0
    endloop
  endfacet
  facet normal 0 0.897 -0.442
    outer loop
      vertex -0.649 -3.683 0
      vertex -0.477 -2.708 1.98
      vertex 0.649 -3.683 0
    endloop
  endfacet
  facet normal 0.307 0.843 -0.442
    outer loop
      vertex -0.649 -3.683 0
      vertex -1.861 -3.242 0
      vertex -0.477 -2.708 1.98
    endloop
  endfacet
  facet normal -0.307 0.843 -0.442
    outer loop
      vertex 0.649 -3.683 0
      vertex 0.477 -2.708 1.98
      vertex 1.861 -3.242 0
    endloop
  endfacet
  facet normal 0.307 0.843 -0.442
    outer loop
      vertex -1.861 -3.242 0
      vertex -1.87 -3.239 0
      vertex -1.375 -2.382 1.98
    endloop
  endfacet
  facet normal -0.307 0.843 -0.442
    outer loop
      vertex 1.861 -3.242 0
      vertex 1.375 -2.382 1.98
      vertex 1.87 -3.239 0
    endloop
  endfacet
  facet normal 0.576 0.688 -0.442
    outer loop
      vertex -1.87 -3.239 0
      vertex -1.877 -3.233 0
      vertex -2.107 -1.768 1.98
    endloop
  endfacet
  facet normal 0.577 0.687 -0.442
    outer loop
      vertex -1.877 -3.233 0
      vertex -2.865 -2.404 0
      vertex -2.107 -1.768 1.98
    endloop
  endfacet
  facet normal 0.777 0.449 -0.442
    outer loop
      vertex -2.865 -2.404 0
      vertex -3.51 -1.287 0
      vertex -2.107 -1.768 1.98
    endloop
  endfacet
  facet normal 0.777 0.449 -0.442
    outer loop
      vertex -3.51 -1.287 0
      vertex -3.514 -1.279 0
      vertex -2.584 -0.941 1.98
    endloop
  endfacet
  facet normal 0.883 0.156 -0.442
    outer loop
      vertex -3.514 -1.279 0
      vertex -3.516 -1.27 0
      vertex -2.584 -0.941 1.98
    endloop
  endfacet
  facet normal 0.884 0.156 -0.442
    outer loop
      vertex -3.516 -1.27 0
      vertex -3.74 0 0
      vertex -2.75 0 1.98
    endloop
  endfacet
  facet normal 0.884 -0.156 -0.442
    outer loop
      vertex -3.74 0 0
      vertex -3.516 1.27 0
      vertex -2.75 0 1.98
    endloop
  endfacet
  facet normal 0.883 -0.156 -0.442
    outer loop
      vertex -3.516 1.27 0
      vertex -3.514 1.279 0
      vertex -2.584 0.941 1.98
    endloop
  endfacet
  facet normal 0.777 -0.449 -0.442
    outer loop
      vertex -3.514 1.279 0
      vertex -3.51 1.287 0
      vertex -2.584 0.941 1.98
    endloop
  endfacet
  facet normal 0.777 -0.449 -0.442
    outer loop
      vertex -3.51 1.287 0
      vertex -2.865 2.404 0
      vertex -2.107 1.768 1.98
    endloop
  endfacet
  facet normal 0.577 -0.687 -0.442
    outer loop
      vertex -2.865 2.404 0
      vertex -1.877 3.233 0
      vertex -2.107 1.768 1.98
    endloop
  endfacet
  facet normal 0.576 -0.688 -0.442
    outer loop
      vertex -1.877 3.233 0
      vertex -1.87 3.239 0
      vertex -2.107 1.768 1.98
    endloop
  endfacet
  facet normal 0.307 -0.843 -0.442
    outer loop
      vertex -1.87 3.239 0
      vertex -1.861 3.242 0
      vertex -1.375 2.382 1.98
    endloop
  endfacet
  facet normal -0.307 -0.843 -0.442
    outer loop
      vertex 1.87 3.239 0
      vertex 1.375 2.382 1.98
      vertex 1.861 3.242 0
    endloop
  endfacet
  facet normal 0.307 -0.843 -0.442
    outer loop
      vertex -1.861 3.242 0
      vertex -0.649 3.683 0
      vertex -0.477 2.708 1.98
    endloop
  endfacet
  facet normal -0.307 -0.843 -0.442
    outer loop
      vertex 1.861 3.242 0
      vertex 0.477 2.708 1.98
      vertex 0.649 3.683 0
    endloop
  endfacet
  facet normal 0 -0.897 -0.442
    outer loop
      vertex -0.649 3.683 0
      vertex 0.649 3.683 0
      vertex 0.477 2.708 1.98
    endloop
  endfacet
  facet normal 0.998 -0.059 0
    outer loop
      vertex 12.412 -1.478 0
      vertex 12.5 0 0
      vertex 12.437 -1.069 2.063
    endloop
  endfacet
  facet normal 0.998 0.059 0
    outer loop
      vertex 12.5 0 0
      vertex 12.412 1.478 0
      vertex 12.437 1.069 2.063
    endloop
  endfacet
  facet normal 0.984 -0.177 0
    outer loop
      vertex 12.15 -2.936 0
      vertex 12.412 -1.478 0
      vertex 12.412 -1.478 2.3
    endloop
  endfacet
  facet normal 0.984 0.177 0
    outer loop
      vertex 12.412 1.478 0
      vertex 12.15 2.936 0
      vertex 12.412 1.478 2.3
    endloop
  endfacet
  facet normal 1 0 0
    outer loop
      vertex 4 -2.86 0
      vertex 4 2.86 0
      vertex 4 0 3.375
    endloop
  endfacet
  facet normal -1 0 0
    outer loop
      vertex 6.64 -2.86 0
      vertex 6.64 0 3.375
      vertex 6.64 2.86 0
    endloop
  endfacet
  facet normal 0.956 -0.292 0
    outer loop
      vertex 11.718 -4.353 0
      vertex 12.15 -2.936 0
      vertex 12.15 -2.936 4.069
    endloop
  endfacet
  facet normal 0.956 0.292 0
    outer loop
      vertex 12.15 2.936 0
      vertex 11.718 4.353 0
      vertex 12.15 2.936 4.069
    endloop
  endfacet
  facet normal 0 1 0
    outer loop
      vertex 4 -2.86 0
      vertex 4 -2.86 6.651
      vertex 6.64 -2.86 0
    endloop
  endfacet
  facet normal 0 -1 0
    outer loop
      vertex 4 2.86 0
      vertex 6.64 2.86 0
      vertex 6.64 2.86 6.651
    endloop
  endfacet
  facet normal -0.03 -1 0
    outer loop
      vertex 0.37 -12.495 0
      vertex 0.37 -12.495 20
      vertex -1.11 -12.451 0
    endloop
  endfacet
  facet normal 0.089 -0.996 0
    outer loop
      vertex 0.37 -12.495 0
      vertex 1.846 -12.363 0
      vertex 1.846 -12.363 20
    endloop
  endfacet
  facet normal -0.148 -0.989 0
    outer loop
      vertex -1.11 -12.451 0
      vertex -1.11 -12.451 20
      vertex -2.575 -12.232 0
    endloop
  endfacet
  facet normal 0.206 -0.979 0
    outer loop
      vertex 1.846 -12.363 0
      vertex 3.295 -12.058 0
      vertex 3.295 -12.058 20
    endloop
  endfacet
  facet normal -0.264 -0.965 0
    outer loop
      vertex -2.575 -12.232 0
      vertex -2.575 -12.232 20
      vertex -4.003 -11.842 0
    endloop
  endfacet
  facet normal 0.32 -0.947 0
    outer loop
      vertex 3.295 -12.058 0
      vertex 4.698 -11.584 0
      vertex 4.698 -11.584 20
    endloop
  endfacet
  facet normal -0.376 -0.927 0
    outer loop
      vertex -4.003 -11.842 0
      vertex -4.003 -11.842 20
      vertex -5.376 -11.285 0
    endloop
  endfacet
  facet normal 0.43 -0.903 0
    outer loop
      vertex 4.698 -11.584 0
      vertex 6.035 -10.947 0
      vertex 6.035 -10.947 20
    endloop
  endfacet
  facet normal -0.483 -0.876 0
    outer loop
      vertex -5.376 -11.285 0
      vertex -5.376 -11.285 20
      vertex -6.673 -10.57 0
    endloop
  endfacet
  facet normal 0.534 -0.846 0
    outer loop
      vertex 6.035 -10.947 0
      vertex 7.287 -10.156 0
      vertex 7.287 -10.156 20
    endloop
  endfacet
  facet normal -0.583 -0.813 0
    outer loop
      vertex -6.673 -10.57 0
      vertex -6.673 -10.57 20
      vertex -7.876 -9.707 0
    endloop
  endfacet
  facet normal 0.63 -0.777 0
    outer loop
      vertex 7.287 -10.156 0
      vertex 8.437 -9.223 0
      vertex 8.437 -9.223 20
    endloop
  endfacet
  facet normal -0.675 -0.738 0
    outer loop
      vertex -7.876 -9.707 0
      vertex -7.876 -9.707 20
      vertex -8.969 -8.707 0
    endloop
  endfacet
  facet normal 0.718 -0.697 0
    outer loop
      vertex 8.437 -9.223 0
      vertex 9.469 -8.16 0
      vertex 8.437 -9.223 20
    endloop
  endfacet
  facet normal -0.758 -0.653 0
    outer loop
      vertex -8.969 -8.707 0
      vertex -9.936 -7.585 20
      vertex -9.936 -7.585 0
    endloop
  endfacet
  facet normal 0.795 -0.607 0
    outer loop
      vertex 9.469 -8.16 0
      vertex 10.368 -6.983 0
      vertex 9.469 -8.16 20
    endloop
  endfacet
  facet normal -0.829 -0.559 0
    outer loop
      vertex -9.936 -7.585 0
      vertex -10.763 -6.357 20
      vertex -10.763 -6.357 0
    endloop
  endfacet
  facet normal 0.861 -0.509 0
    outer loop
      vertex 10.368 -6.983 0
      vertex 11.121 -5.708 0
      vertex 10.368 -6.983 20
    endloop
  endfacet
  facet normal -0.89 -0.457 0
    outer loop
      vertex -10.763 -6.357 0
      vertex -11.439 -5.039 20
      vertex -11.439 -5.039 0
    endloop
  endfacet
  facet normal 0.915 -0.403 0
    outer loop
      vertex 11.121 -5.708 0
      vertex 11.718 -4.353 0
      vertex 11.121 -5.708 20
    endloop
  endfacet
  facet normal -0.937 -0.348 0
    outer loop
      vertex -11.439 -5.039 0
      vertex -11.955 -3.651 20
      vertex -11.955 -3.651 0
    endloop
  endfacet
  facet normal -0.972 -0.235 0
    outer loop
      vertex -11.955 -3.651 0
      vertex -12.303 -2.211 20
      vertex -12.303 -2.211 0
    endloop
  endfacet
  facet normal -0.993 -0.118 0
    outer loop
      vertex -12.303 -2.211 0
      vertex -12.478 -0.741 20
      vertex -12.478 -0.741 0
    endloop
  endfacet
  facet normal -1 0 0
    outer loop
      vertex -12.478 -0.741 0
      vertex -12.478 0.741 20
      vertex -12.478 0.741 0
    endloop
  endfacet
  facet normal -0.993 0.118 0
    outer loop
      vertex -12.478 0.741 0
      vertex -12.303 2.211 20
      vertex -12.303 2.211 0
    endloop
  endfacet
  facet normal -0.972 0.235 0
    outer loop
      vertex -12.303 2.211 0
      vertex -11.955 3.651 20
      vertex -11.955 3.651 0
    endloop
  endfacet
  facet normal -0.937 0.348 0
    outer loop
      vertex -11.955 3.651 0
      vertex -11.439 5.039 20
      vertex -11.439 5.039 0
    endloop
  endfacet
  facet normal 0.915 0.403 0
    outer loop
      vertex 11.718 4.353 0
      vertex 11.121 5.708 0
      vertex 11.718 4.353 20
    endloop
  endfacet
  facet normal -0.89 0.457 0
    outer loop
      vertex -11.439 5.039 0
      vertex -10.763 6.357 20
      vertex -10.763 6.357 0
    endloop
  endfacet
  facet normal 0.861 0.509 0
    outer loop
      vertex 11.121 5.708 0
      vertex 10.368 6.983 0
      vertex 11.121 5.708 20
    endloop
  endfacet
  facet normal -0.829 0.559 0
    outer loop
      vertex -10.763 6.357 0
      vertex -9.936 7.585 20
      vertex -9.936 7.585 0
    endloop
  endfacet
  facet normal 0.795 0.607 0
    outer loop
      vertex 10.368 6.983 0
      vertex 9.469 8.16 0
      vertex 10.368 6.983 20
    endloop
  endfacet
  facet normal -0.758 0.653 0
    outer loop
      vertex -9.936 7.585 0
      vertex -8.969 8.707 20
      vertex -8.969 8.707 0
    endloop
  endfacet
  facet normal 0.718 0.697 0
    outer loop
      vertex 9.469 8.16 0
      vertex 8.437 9.223 0
      vertex 9.469 8.16 20
    endloop
  endfacet
  facet normal -0.675 0.738 0
    outer loop
      vertex -8.969 8.707 0
      vertex -8.969 8.707 20
      vertex -7.876 9.707 0
    endloop
  endfacet
  facet normal 0.63 0.777 0
    outer loop
      vertex 8.437 9.223 0
      vertex 7.287 10.156 0
      vertex 7.287 10.156 20
    endloop
  endfacet
  facet normal -0.583 0.813 0
    outer loop
      vertex -7.876 9.707 0
      vertex -7.876 9.707 20
      vertex -6.673 10.57 0
    endloop
  endfacet
  facet normal 0.534 0.846 0
    outer loop
      vertex 7.287 10.156 0
      vertex 6.035 10.947 0
      vertex 6.035 10.947 20
    endloop
  endfacet
  facet normal -0.483 0.876 0
    outer loop
      vertex -6.673 10.57 0
      vertex -6.673 10.57 20
      vertex -5.376 11.285 0
    endloop
  endfacet
  facet normal 0.43 0.903 0
    outer loop
      vertex 6.035 10.947 0
      vertex 4.698 11.584 0
      vertex 4.698 11.584 20
    endloop
  endfacet
  facet normal -0.376 0.927 0
    outer loop
      vertex -5.376 11.285 0
      vertex -5.376 11.285 20
      vertex -4.003 11.842 0
    endloop
  endfacet
  facet normal 0.32 0.947 0
    outer loop
      vertex 4.698 11.584 0
      vertex 3.295 12.058 0
      vertex 3.295 12.058 20
    endloop
  endfacet
  facet normal -0.264 0.965 0
    outer loop
      vertex -4.003 11.842 0
      vertex -4.003 11.842 20
      vertex -2.575 12.232 0
    endloop
  endfacet
  facet normal 0.206 0.979 0
    outer loop
      vertex 3.295 12.058 0
      vertex 1.846 12.363 0
      vertex 1.846 12.363 20
    endloop
  endfacet
  facet normal -0.148 0.989 0
    outer loop
      vertex -2.575 12.232 0
      vertex -2.575 12.232 20
      vertex -1.11 12.451 0
    endloop
  endfacet
  facet normal 0.089 0.996 0
    outer loop
      vertex 1.846 12.363 0
      vertex 0.37 12.495 0
      vertex 0.37 12.495 20
    endloop
  endfacet
  facet normal -0.03 1 0
    outer loop
      vertex -1.11 12.451 0
      vertex -1.11 12.451 20
      vertex 0.37 12.495 0
    endloop
  endfacet
  facet normal -1 0 0
    outer loop
      vertex 2 3.13 0
      vertex 2 -2.449 1.059
      vertex 2 2.449 1.059
    endloop
  endfacet
  facet normal -0.577 0.687 -0.442
    outer loop
      vertex 1.87 -3.239 0
      vertex 1.375 -2.382 1.98
      vertex 2 -2.449 1.059
    endloop
  endfacet
  facet normal -0.577 -0.687 -0.442
    outer loop
      vertex 1.87 3.239 0
      vertex 2 2.449 1.059
      vertex 1.375 2.382 1.98
    endloop
  endfacet
  facet normal 0.998 -0.059 0
    outer loop
      vertex 12.5 0 0
      vertex 12.5 0 1.875
      vertex 12.437 -1.069 2.063
    endloop
  endfacet
  facet normal 0.998 0.059 0
    outer loop
      vertex 12.5 0 0
      vertex 12.437 1.069 2.063
      vertex 12.5 0 1.875
    endloop
  endfacet
  facet normal 0 0.897 -0.442
    outer loop
      vertex 0.649 -3.683 0
      vertex -0.477 -2.708 1.98
      vertex 0.477 -2.708 1.98
    endloop
  endfacet
  facet normal 0.307 0.843 -0.442
    outer loop
      vertex -1.861 -3.242 0
      vertex -1.375 -2.382 1.98
      vertex -0.477 -2.708 1.98
    endloop
  endfacet
  facet normal -0.307 0.843 -0.442
    outer loop
      vertex 1.861 -3.242 0
      vertex 0.477 -2.708 1.98
      vertex 1.375 -2.382 1.98
    endloop
  endfacet
  facet normal 0.577 0.687 -0.442
    outer loop
      vertex -1.87 -3.239 0
      vertex -2.107 -1.768 1.98
      vertex -1.375 -2.382 1.98
    endloop
  endfacet
  facet normal 0.777 0.449 -0.442
    outer loop
      vertex -3.51 -1.287 0
      vertex -2.584 -0.941 1.98
      vertex -2.107 -1.768 1.98
    endloop
  endfacet
  facet normal 0.884 0.156 -0.442
    outer loop
      vertex -3.516 -1.27 0
      vertex -2.75 0 1.98
      vertex -2.584 -0.941 1.98
    endloop
  endfacet
  facet normal 0.884 -0.156 -0.442
    outer loop
      vertex -3.516 1.27 0
      vertex -2.584 0.941 1.98
      vertex -2.75 0 1.98
    endloop
  endfacet
  facet normal 0.777 -0.449 -0.442
    outer loop
      vertex -3.51 1.287 0
      vertex -2.107 1.768 1.98
      vertex -2.584 0.941 1.98
    endloop
  endfacet
  facet normal 0.577 -0.687 -0.442
    outer loop
      vertex -1.87 3.239 0
      vertex -1.375 2.382 1.98
      vertex -2.107 1.768 1.98
    endloop
  endfacet
  facet normal 0.307 -0.843 -0.442
    outer loop
      vertex -1.861 3.242 0
      vertex -0.477 2.708 1.98
      vertex -1.375 2.382 1.98
    endloop
  endfacet
  facet normal -0.307 -0.843 -0.442
    outer loop
      vertex 1.861 3.242 0
      vertex 1.375 2.382 1.98
      vertex 0.477 2.708 1.98
    endloop
  endfacet
  facet normal 0 -0.897 -0.442
    outer loop
      vertex -0.649 3.683 0
      vertex 0.477 2.708 1.98
      vertex -0.477 2.708 1.98
    endloop
  endfacet
  facet normal 0.998 -0.059 0
    outer loop
      vertex 12.412 -1.478 0
      vertex 12.437 -1.069 2.063
      vertex 12.412 -1.478 2.3
    endloop
  endfacet
  facet normal 0.998 0.059 0
    outer loop
      vertex 12.412 1.478 0
      vertex 12.412 1.478 2.3
      vertex 12.437 1.069 2.063
    endloop
  endfacet
  facet normal 0.984 -0.177 0
    outer loop
      vertex 12.15 -2.936 0
      vertex 12.412 -1.478 2.3
      vertex 12.317 -2.009 2.606
    endloop
  endfacet
  facet normal 0.984 0.177 0
    outer loop
      vertex 12.15 2.936 0
      vertex 12.317 2.009 2.606
      vertex 12.412 1.478 2.3
    endloop
  endfacet
  facet normal 0.984 -0.177 0
    outer loop
      vertex 12.15 -2.936 0
      vertex 12.317 -2.009 2.606
      vertex 12.192 -2.706 3.438
    endloop
  endfacet
  facet normal 0.984 0.177 0
    outer loop
      vertex 12.15 2.936 0
      vertex 12.192 2.706 3.438
      vertex 12.317 2.009 2.606
    endloop
  endfacet
  facet normal 1 0 0
    outer loop
      vertex 4 -2.86 0
      vertex 4 0 3.375
      vertex 4 -0.556 3.473
    endloop
  endfacet
  facet normal -1 0 0
    outer loop
      vertex 6.64 -2.86 0
      vertex 6.64 -0.556 3.473
      vertex 6.64 0 3.375
    endloop
  endfacet
  facet normal 1 0 0
    outer loop
      vertex 4 2.86 0
      vertex 4 0.556 3.473
      vertex 4 0 3.375
    endloop
  endfacet
  facet normal -1 0 0
    outer loop
      vertex 6.64 2.86 0
      vertex 6.64 0 3.375
      vertex 6.64 0.556 3.473
    endloop
  endfacet
  facet normal 0.984 -0.177 0
    outer loop
      vertex 12.15 -2.936 0
      vertex 12.192 -2.706 3.438
      vertex 12.15 -2.936 4.069
    endloop
  endfacet
  facet normal 0.984 0.177 0
    outer loop
      vertex 12.15 2.936 0
      vertex 12.15 2.936 4.069
      vertex 12.192 2.706 3.438
    endloop
  endfacet
  facet normal 1 0 0
    outer loop
      vertex 4 -2.86 0
      vertex 4 -0.556 3.473
      vertex 4 -1.044 3.755
    endloop
  endfacet
  facet normal -1 0 0
    outer loop
      vertex 6.64 -2.86 0
      vertex 6.64 -1.044 3.755
      vertex 6.64 -0.556 3.473
    endloop
  endfacet
  facet normal 1 0 0
    outer loop
      vertex 4 2.86 0
      vertex 4 1.044 3.755
      vertex 4 0.556 3.473
    endloop
  endfacet
  facet normal -1 0 0
    outer loop
      vertex 6.64 2.86 0
      vertex 6.64 0.556 3.473
      vertex 6.64 1.044 3.755
    endloop
  endfacet
  facet normal 1 0 0
    outer loop
      vertex 4 -2.86 0
      vertex 4 -1.044 3.755
      vertex 4 -1.407 4.188
    endloop
  endfacet
  facet normal -1 0 0
    outer loop
      vertex 6.64 -2.86 0
      vertex 6.64 -1.407 4.188
      vertex 6.64 -1.044 3.755
    endloop
  endfacet
  facet normal 1 0 0
    outer loop
      vertex 4 2.86 0
      vertex 4 1.407 4.188
      vertex 4 1.044 3.755
    endloop
  endfacet
  facet normal -1 0 0
    outer loop
      vertex 6.64 2.86 0
      vertex 6.64 1.044 3.755
      vertex 6.64 1.407 4.188
    endloop
  endfacet
  facet normal 0.956 -0.292 0
    outer loop
      vertex 11.718 -4.353 0
      vertex 12.15 -2.936 4.069
      vertex 12.107 -3.078 4.457
    endloop
  endfacet
  facet normal 0.956 0.292 0
    outer loop
      vertex 11.718 4.353 0
      vertex 12.107 3.078 4.457
      vertex 12.15 2.936 4.069
    endloop
  endfacet
  facet normal 1 0 0
    outer loop
      vertex 4 -2.86 0
      vertex 4 -1.407 4.188
      vertex 4 -1.6 4.718
    endloop
  endfacet
  facet normal -1 0 0
    outer loop
      vertex 6.64 -2.86 0
      vertex 6.64 -1.6 4.718
      vertex 6.64 -1.407 4.188
    endloop
  endfacet
  facet normal 1 0 0
    outer loop
      vertex 4 2.86 0
      vertex 4 1.6 4.718
      vertex 4 1.407 4.188
    endloop
  endfacet
  facet normal -1 0 0
    outer loop
      vertex 6.64 2.86 0
      vertex 6.64 1.407 4.188
      vertex 6.64 1.6 4.718
    endloop
  endfacet
  facet normal 0.956 -0.292 0
    outer loop
      vertex 11.718 -4.353 0
      vertex 12.107 -3.078 4.457
      vertex 12.107 -3.078 5.543
    endloop
  endfacet
  facet normal 0.956 0.292 0
    outer loop
      vertex 11.718 4.353 0
      vertex 12.107 3.078 5.543
      vertex 12.107 3.078 4.457
    endloop
  endfacet
  facet normal 1 0 0
    outer loop
      vertex 4 -2.86 0
      vertex 4 -1.6 4.718
      vertex 4 -2.86 6.651
    endloop
  endfacet
  facet normal -1 0 0
    outer loop
      vertex 6.64 -2.86 0
      vertex 6.64 -2.86 6.651
      vertex 6.64 -1.6 4.718
    endloop
  endfacet
  facet normal 1 0 0
    outer loop
      vertex 4 2.86 0
      vertex 4 2.86 6.651
      vertex 4 1.6 4.718
    endloop
  endfacet
  facet normal -1 0 0
    outer loop
      vertex 6.64 2.86 0
      vertex 6.64 1.6 4.718
      vertex 6.64 2.86 6.651
    endloop
  endfacet
  facet normal 0.956 -0.292 0
    outer loop
      vertex 11.718 -4.353 0
      vertex 12.107 -3.078 5.543
      vertex 11.718 -4.353 20
    endloop
  endfacet
  facet normal 0.956 0.292 0
    outer loop
      vertex 11.718 4.353 0
      vertex 11.718 4.353 20
      vertex 12.107 3.078 5.543
    endloop
  endfacet
  facet normal 0 1 0
    outer loop
      vertex 6.64 -2.86 0
      vertex 4 -2.86 6.651
      vertex 6.64 -2.86 6.651
    endloop
  endfacet
  facet normal 0 -1 0
    outer loop
      vertex 4 2.86 0
      vertex 6.64 2.86 6.651
      vertex 4 2.86 6.651
    endloop
  endfacet
  facet normal 0.089 -0.996 0
    outer loop
      vertex 0.37 -12.495 0
      vertex 1.846 -12.363 20
      vertex 0.37 -12.495 20
    endloop
  endfacet
  facet normal -0.03 -1 0
    outer loop
      vertex -1.11 -12.451 0
      vertex 0.37 -12.495 20
      vertex -1.11 -12.451 20
    endloop
  endfacet
  facet normal -0.148 -0.989 0
    outer loop
      vertex -2.575 -12.232 0
      vertex -1.11 -12.451 20
      vertex -2.575 -12.232 20
    endloop
  endfacet
  facet normal 0.206 -0.979 0
    outer loop
      vertex 1.846 -12.363 0
      vertex 3.295 -12.058 20
      vertex 1.846 -12.363 20
    endloop
  endfacet
  facet normal -0.264 -0.965 0
    outer loop
      vertex -4.003 -11.842 0
      vertex -2.575 -12.232 20
      vertex -4.003 -11.842 20
    endloop
  endfacet
  facet normal 0.32 -0.947 0
    outer loop
      vertex 3.295 -12.058 0
      vertex 4.698 -11.584 20
      vertex 3.295 -12.058 20
    endloop
  endfacet
  facet normal -0.376 -0.927 0
    outer loop
      vertex -5.376 -11.285 0
      vertex -4.003 -11.842 20
      vertex -5.376 -11.285 20
    endloop
  endfacet
  facet normal 0.43 -0.903 0
    outer loop
      vertex 4.698 -11.584 0
      vertex 6.035 -10.947 20
      vertex 4.698 -11.584 20
    endloop
  endfacet
  facet normal -0.483 -0.876 0
    outer loop
      vertex -6.673 -10.57 0
      vertex -5.376 -11.285 20
      vertex -6.673 -10.57 20
    endloop
  endfacet
  facet normal 0.534 -0.846 0
    outer loop
      vertex 6.035 -10.947 0
      vertex 7.287 -10.156 20
      vertex 6.035 -10.947 20
    endloop
  endfacet
  facet normal -0.583 -0.813 0
    outer loop
      vertex -7.876 -9.707 0
      vertex -6.673 -10.57 20
      vertex -7.876 -9.707 20
    endloop
  endfacet
  facet normal 0.63 -0.777 0
    outer loop
      vertex 7.287 -10.156 0
      vertex 8.437 -9.223 20
      vertex 7.287 -10.156 20
    endloop
  endfacet
  facet normal -0.675 -0.738 0
    outer loop
      vertex -8.969 -8.707 0
      vertex -7.876 -9.707 20
      vertex -8.969 -8.707 20
    endloop
  endfacet
  facet normal 0.718 -0.697 0
    outer loop
      vertex 9.469 -8.16 0
      vertex 9.469 -8.16 20
      vertex 8.437 -9.223 20
    endloop
  endfacet
  facet normal -0.758 -0.653 0
    outer loop
      vertex -8.969 -8.707 0
      vertex -8.969 -8.707 20
      vertex -9.936 -7.585 20
    endloop
  endfacet
  facet normal 0.795 -0.607 0
    outer loop
      vertex 10.368 -6.983 0
      vertex 10.368 -6.983 20
      vertex 9.469 -8.16 20
    endloop
  endfacet
  facet normal -0.829 -0.559 0
    outer loop
      vertex -9.936 -7.585 0
      vertex -9.936 -7.585 20
      vertex -10.763 -6.357 20
    endloop
  endfacet
  facet normal 0.861 -0.509 0
    outer loop
      vertex 11.121 -5.708 0
      vertex 11.121 -5.708 20
      vertex 10.368 -6.983 20
    endloop
  endfacet
  facet normal -0.89 -0.457 0
    outer loop
      vertex -10.763 -6.357 0
      vertex -10.763 -6.357 20
      vertex -11.439 -5.039 20
    endloop
  endfacet
  facet normal 0.915 -0.403 0
    outer loop
      vertex 11.718 -4.353 0
      vertex 11.718 -4.353 20
      vertex 11.121 -5.708 20
    endloop
  endfacet
  facet normal -0.937 -0.348 0
    outer loop
      vertex -11.439 -5.039 0
      vertex -11.439 -5.039 20
      vertex -11.955 -3.651 20
    endloop
  endfacet
  facet normal -0.972 -0.235 0
    outer loop
      vertex -11.955 -3.651 0
      vertex -11.955 -3.651 20
      vertex -12.303 -2.211 20
    endloop
  endfacet
  facet normal -0.993 -0.118 0
    outer loop
      vertex -12.303 -2.211 0
      vertex -12.303 -2.211 20
      vertex -12.478 -0.741 20
    endloop
  endfacet
  facet normal -1 0 0
    outer loop
      vertex -12.478 -0.741 0
      vertex -12.478 -0.741 20
      vertex -12.478 0.741 20
    endloop
  endfacet
  facet normal -0.993 0.118 0
    outer loop
      vertex -12.478 0.741 0
      vertex -12.478 0.741 20
      vertex -12.303 2.211 20
    endloop
  endfacet
  facet normal -0.972 0.235 0
    outer loop
      vertex -12.303 2.211 0
      vertex -12.303 2.211 20
      vertex -11.955 3.651 20
    endloop
  endfacet
  facet normal -0.937 0.348 0
    outer loop
      vertex -11.955 3.651 0
      vertex -11.955 3.651 20
      vertex -11.439 5.039 20
    endloop
  endfacet
  facet normal 0.915 0.403 0
    outer loop
      vertex 11.121 5.708 0
      vertex 11.121 5.708 20
      vertex 11.718 4.353 20
    endloop
  endfacet
  facet normal -0.89 0.457 0
    outer loop
      vertex -11.439 5.039 0
      vertex -11.439 5.039 20
      vertex -10.763 6.357 20
    endloop
  endfacet
  facet normal 0.861 0.509 0
    outer loop
      vertex 10.368 6.983 0
      vertex 10.368 6.983 20
      vertex 11.121 5.708 20
    endloop
  endfacet
  facet normal -0.829 0.559 0
    outer loop
      vertex -10.763 6.357 0
      vertex -10.763 6.357 20
      vertex -9.936 7.585 20
    endloop
  endfacet
  facet normal 0.795 0.607 0
    outer loop
      vertex 9.469 8.16 0
      vertex 9.469 8.16 20
      vertex 10.368 6.983 20
    endloop
  endfacet
  facet normal -0.758 0.653 0
    outer loop
      vertex -9.936 7.585 0
      vertex -9.936 7.585 20
      vertex -8.969 8.707 20
    endloop
  endfacet
  facet normal 0.718 0.697 0
    outer loop
      vertex 8.437 9.223 0
      vertex 8.437 9.223 20
      vertex 9.469 8.16 20
    endloop
  endfacet
  facet normal -0.675 0.738 0
    outer loop
      vertex -7.876 9.707 0
      vertex -8.969 8.707 20
      vertex -7.876 9.707 20
    endloop
  endfacet
  facet normal 0.63 0.777 0
    outer loop
      vertex 8.437 9.223 0
      vertex 7.287 10.156 20
      vertex 8.437 9.223 20
    endloop
  endfacet
  facet normal -0.583 0.813 0
    outer loop
      vertex -6.673 10.57 0
      vertex -7.876 9.707 20
      vertex -6.673 10.57 20
    endloop
  endfacet
  facet normal 0.534 0.846 0
    outer loop
      vertex 7.287 10.156 0
      vertex 6.035 10.947 20
      vertex 7.287 10.156 20
    endloop
  endfacet
  facet normal -0.483 0.876 0
    outer loop
      vertex -5.376 11.285 0
      vertex -6.673 10.57 20
      vertex -5.376 11.285 20
    endloop
  endfacet
  facet normal 0.43 0.903 0
    outer loop
      vertex 6.035 10.947 0
      vertex 4.698 11.584 20
      vertex 6.035 10.947 20
    endloop
  endfacet
  facet normal -0.376 0.927 0
    outer loop
      vertex -4.003 11.842 0
      vertex -5.376 11.285 20
      vertex -4.003 11.842 20
    endloop
  endfacet
  facet normal 0.32 0.947 0
    outer loop
      vertex 4.698 11.584 0
      vertex 3.295 12.058 20
      vertex 4.698 11.584 20
    endloop
  endfacet
  facet normal -0.264 0.965 0
    outer loop
      vertex -2.575 12.232 0
      vertex -4.003 11.842 20
      vertex -2.575 12.232 20
    endloop
  endfacet
  facet normal 0.206 0.979 0
    outer loop
      vertex 3.295 12.058 0
      vertex 1.846 12.363 20
      vertex 3.295 12.058 20
    endloop
  endfacet
  facet normal -0.148 0.989 0
    outer loop
      vertex -1.11 12.451 0
      vertex -2.575 12.232 20
      vertex -1.11 12.451 20
    endloop
  endfacet
  facet normal 0.089 0.996 0
    outer loop
      vertex 1.846 12.363 0
      vertex 0.37 12.495 20
      vertex 1.846 12.363 20
    endloop
  endfacet
  facet normal -0.03 1 0
    outer loop
      vertex 0.37 12.495 0
      vertex -1.11 12.451 20
      vertex 0.37 12.495 20
    endloop
  endfacet
  facet normal -1 0 0
    outer loop
      vertex 2 -2.449 1.059
      vertex 2 1.857 1.98
      vertex 2 2.449 1.059
    endloop
  endfacet
  facet normal -0.577 0.687 -0.442
    outer loop
      vertex 2 -2.449 1.059
      vertex 1.375 -2.382 1.98
      vertex 2 -1.857 1.98
    endloop
  endfacet
  facet normal -1 0 0
    outer loop
      vertex 2 -2.449 1.059
      vertex 2 -1.857 1.98
      vertex 2 1.857 1.98
    endloop
  endfacet
  facet normal -0.577 -0.687 -0.442
    outer loop
      vertex 2 2.449 1.059
      vertex 2 1.857 1.98
      vertex 1.375 2.382 1.98
    endloop
  endfacet
  facet normal 0 0.174 0.985
    outer loop
      vertex 10 0 1.875
      vertex 12.437 -1.069 2.063
      vertex 12.5 0 1.875
    endloop
  endfacet
  facet normal 0 -0.174 0.985
    outer loop
      vertex 10 0 1.875
      vertex 12.5 0 1.875
      vertex 12.437 1.069 2.063
    endloop
  endfacet
  facet normal 0 0.174 0.985
    outer loop
      vertex 10 0 1.875
      vertex 10 -1.069 2.063
      vertex 12.437 -1.069 2.063
    endloop
  endfacet
  facet normal 0 -0.174 0.985
    outer loop
      vertex 10 0 1.875
      vertex 12.437 1.069 2.063
      vertex 10 1.069 2.063
    endloop
  endfacet
  facet normal 1 0 0
    outer loop
      vertex 10 0 1.875
      vertex 10 1.069 2.063
      vertex 10 0 3.375
    endloop
  endfacet
  facet normal 1 0 0
    outer loop
      vertex 10 0 1.875
      vertex 10 -0.556 3.473
      vertex 10 -1.069 2.063
    endloop
  endfacet
  facet normal 1 0 0
    outer loop
      vertex 10 0 1.875
      vertex 10 0 3.375
      vertex 10 -0.556 3.473
    endloop
  endfacet
  facet normal -1 0 0
    outer loop
      vertex 2 -1.857 1.98
      vertex 2 0 3.375
      vertex 2 1.857 1.98
    endloop
  endfacet
  facet normal 0 1 0
    outer loop
      vertex -0.477 -2.708 1.98
      vertex -0.477 -2.708 31.99
      vertex 0.477 -2.708 1.98
    endloop
  endfacet
  facet normal -0.342 0.94 0
    outer loop
      vertex 0.477 -2.708 1.98
      vertex 0.477 -2.708 31.99
      vertex 1.375 -2.382 1.98
    endloop
  endfacet
  facet normal 0.342 0.94 0
    outer loop
      vertex -0.477 -2.708 1.98
      vertex -1.375 -2.382 1.98
      vertex -1.375 -2.382 31.99
    endloop
  endfacet
  facet normal -0.643 0.766 0
    outer loop
      vertex 1.375 -2.382 1.98
      vertex 1.375 -2.382 31.99
      vertex 2 -1.857 1.98
    endloop
  endfacet
  facet normal 0.643 0.766 0
    outer loop
      vertex -1.375 -2.382 1.98
      vertex -2.107 -1.768 1.98
      vertex -2.107 -1.768 31.99
    endloop
  endfacet
  facet normal 0.866 0.5 0
    outer loop
      vertex -2.107 -1.768 1.98
      vertex -2.584 -0.941 1.98
      vertex -2.107 -1.768 31.99
    endloop
  endfacet
  facet normal 0.985 0.174 0
    outer loop
      vertex -2.584 -0.941 1.98
      vertex -2.75 0 1.98
      vertex -2.584 -0.941 31.99
    endloop
  endfacet
  facet normal 0.985 -0.174 0
    outer loop
      vertex -2.75 0 1.98
      vertex -2.584 0.941 1.98
      vertex -2.75 0 31.99
    endloop
  endfacet
  facet normal 0.866 -0.5 0
    outer loop
      vertex -2.584 0.941 1.98
      vertex -2.107 1.768 1.98
      vertex -2.584 0.941 31.99
    endloop
  endfacet
  facet normal 0.643 -0.766 0
    outer loop
      vertex -2.107 1.768 1.98
      vertex -1.375 2.382 1.98
      vertex -1.375 2.382 31.99
    endloop
  endfacet
  facet normal -0.643 -0.766 0
    outer loop
      vertex 2 1.857 1.98
      vertex 2 1.857 31.99
      vertex 1.375 2.382 1.98
    endloop
  endfacet
  facet normal -0.342 -0.94 0
    outer loop
      vertex 1.375 2.382 1.98
      vertex 1.375 2.382 31.99
      vertex 0.477 2.708 1.98
    endloop
  endfacet
  facet normal 0.342 -0.94 0
    outer loop
      vertex -1.375 2.382 1.98
      vertex -0.477 2.708 1.98
      vertex -0.477 2.708 31.99
    endloop
  endfacet
  facet normal 0 -1 0
    outer loop
      vertex -0.477 2.708 1.98
      vertex 0.477 2.708 1.98
      vertex 0.477 2.708 31.99
    endloop
  endfacet
  facet normal -1 0 0
    outer loop
      vertex 2 -1.857 1.98
      vertex 2 -0.556 3.473
      vertex 2 0 3.375
    endloop
  endfacet
  facet normal -1 0 0
    outer loop
      vertex 2 1.857 1.98
      vertex 2 0 3.375
      vertex 2 0.556 3.473
    endloop
  endfacet
  facet normal -1 0 0
    outer loop
      vertex 2 -1.857 1.98
      vertex 2 -1.044 3.755
      vertex 2 -0.556 3.473
    endloop
  endfacet
  facet normal -1 0 0
    outer loop
      vertex 2 1.857 1.98
      vertex 2 0.556 3.473
      vertex 2 1.044 3.755
    endloop
  endfacet
  facet normal -1 0 0
    outer loop
      vertex 2 -1.857 1.98
      vertex 2 -1.407 4.188
      vertex 2 -1.044 3.755
    endloop
  endfacet
  facet normal -1 0 0
    outer loop
      vertex 2 1.857 1.98
      vertex 2 1.044 3.755
      vertex 2 1.407 4.188
    endloop
  endfacet
  facet normal -1 0 0
    outer loop
      vertex 2 -1.857 1.98
      vertex 2 -1.6 4.718
      vertex 2 -1.407 4.188
    endloop
  endfacet
  facet normal -1 0 0
    outer loop
      vertex 2 1.857 1.98
      vertex 2 1.407 4.188
      vertex 2 1.6 4.718
    endloop
  endfacet
  facet normal -1 0 0
    outer loop
      vertex 2 -1.857 1.98
      vertex 2 -1.6 5.282
      vertex 2 -1.6 4.718
    endloop
  endfacet
  facet normal -1 0 0
    outer loop
      vertex 2 1.857 1.98
      vertex 2 1.6 4.718
      vertex 2 1.6 5.282
    endloop
  endfacet
  facet normal -1 0 0
    outer loop
      vertex 2 -1.857 1.98
      vertex 2 -1.857 31.99
      vertex 2 -1.6 5.282
    endloop
  endfacet
  facet normal -1 0 0
    outer loop
      vertex 2 1.857 1.98
      vertex 2 1.6 5.282
      vertex 2 1.857 31.99
    endloop
  endfacet
  facet normal 0 1 0
    outer loop
      vertex 0.477 -2.708 1.98
      vertex -0.477 -2.708 31.99
      vertex 0.477 -2.708 31.99
    endloop
  endfacet
  facet normal 0.342 0.94 0
    outer loop
      vertex -0.477 -2.708 1.98
      vertex -1.375 -2.382 31.99
      vertex -0.477 -2.708 31.99
    endloop
  endfacet
  facet normal -0.342 0.94 0
    outer loop
      vertex 1.375 -2.382 1.98
      vertex 0.477 -2.708 31.99
      vertex 1.375 -2.382 31.99
    endloop
  endfacet
  facet normal 0.643 0.766 0
    outer loop
      vertex -1.375 -2.382 1.98
      vertex -2.107 -1.768 31.99
      vertex -1.375 -2.382 31.99
    endloop
  endfacet
  facet normal -0.643 0.766 0
    outer loop
      vertex 2 -1.857 1.98
      vertex 1.375 -2.382 31.99
      vertex 2 -1.857 31.99
    endloop
  endfacet
  facet normal 0.866 0.5 0
    outer loop
      vertex -2.584 -0.941 1.98
      vertex -2.584 -0.941 31.99
      vertex -2.107 -1.768 31.99
    endloop
  endfacet
  facet normal 0.985 0.174 0
    outer loop
      vertex -2.75 0 1.98
      vertex -2.75 0 31.99
      vertex -2.584 -0.941 31.99
    endloop
  endfacet
  facet normal 0.985 -0.174 0
    outer loop
      vertex -2.584 0.941 1.98
      vertex -2.584 0.941 31.99
      vertex -2.75 0 31.99
    endloop
  endfacet
  facet normal 0.866 -0.5 0
    outer loop
      vertex -2.107 1.768 1.98
      vertex -2.107 1.768 31.99
      vertex -2.584 0.941 31.99
    endloop
  endfacet
  facet normal 0.643 -0.766 0
    outer loop
      vertex -2.107 1.768 1.98
      vertex -1.375 2.382 31.99
      vertex -2.107 1.768 31.99
    endloop
  endfacet
  facet normal -0.643 -0.766 0
    outer loop
      vertex 1.375 2.382 1.98
      vertex 2 1.857 31.99
      vertex 1.375 2.382 31.99
    endloop
  endfacet
  facet normal 0.342 -0.94 0
    outer loop
      vertex -1.375 2.382 1.98
      vertex -0.477 2.708 31.99
      vertex -1.375 2.382 31.99
    endloop
  endfacet
  facet normal -0.342 -0.94 0
    outer loop
      vertex 0.477 2.708 1.98
      vertex 1.375 2.382 31.99
      vertex 0.477 2.708 31.99
    endloop
  endfacet
  facet normal 0 -1 0
    outer loop
      vertex -0.477 2.708 1.98
      vertex 0.477 2.708 31.99
      vertex -0.477 2.708 31.99
    endloop
  endfacet
  facet normal 0 0.5 0.866
    outer loop
      vertex 10 -1.069 2.063
      vertex 12.412 -1.478 2.3
      vertex 12.437 -1.069 2.063
    endloop
  endfacet
  facet normal 0 -0.5 0.866
    outer loop
      vertex 10 1.069 2.063
      vertex 12.437 1.069 2.063
      vertex 12.412 1.478 2.3
    endloop
  endfacet
  facet normal 0 0.5 0.866
    outer loop
      vertex 10 -1.069 2.063
      vertex 12.317 -2.009 2.606
      vertex 12.412 -1.478 2.3
    endloop
  endfacet
  facet normal 0 -0.5 0.866
    outer loop
      vertex 10 1.069 2.063
      vertex 12.412 1.478 2.3
      vertex 12.317 2.009 2.606
    endloop
  endfacet
  facet normal 0 0.5 0.866
    outer loop
      vertex 10 -1.069 2.063
      vertex 10 -2.009 2.606
      vertex 12.317 -2.009 2.606
    endloop
  endfacet
  facet normal 0 -0.5 0.866
    outer loop
      vertex 10 1.069 2.063
      vertex 12.317 2.009 2.606
      vertex 10 2.009 2.606
    endloop
  endfacet
  facet normal 1 0 0
    outer loop
      vertex 10 -1.069 2.063
      vertex 10 -1.044 3.755
      vertex 10 -2.009 2.606
    endloop
  endfacet
  facet normal 1 0 0
    outer loop
      vertex 10 1.069 2.063
      vertex 10 2.009 2.606
      vertex 10 1.044 3.755
    endloop
  endfacet
  facet normal 1 0 0
    outer loop
      vertex 10 1.069 2.063
      vertex 10 0.556 3.473
      vertex 10 0 3.375
    endloop
  endfacet
  facet normal 1 0 0
    outer loop
      vertex 10 -1.069 2.063
      vertex 10 -0.556 3.473
      vertex 10 -1.044 3.755
    endloop
  endfacet
  facet normal 1 0 0
    outer loop
      vertex 10 1.069 2.063
      vertex 10 1.044 3.755
      vertex 10 0.556 3.473
    endloop
  endfacet
  facet normal 0 0.766 0.643
    outer loop
      vertex 10 -2.009 2.606
      vertex 12.192 -2.706 3.438
      vertex 12.317 -2.009 2.606
    endloop
  endfacet
  facet normal 0 -0.766 0.643
    outer loop
      vertex 10 2.009 2.606
      vertex 12.317 2.009 2.606
      vertex 12.192 2.706 3.438
    endloop
  endfacet
  facet normal 0 0.766 0.643
    outer loop
      vertex 10 -2.009 2.606
      vertex 10 -2.706 3.438
      vertex 12.192 -2.706 3.438
    endloop
  endfacet
  facet normal 0 -0.766 0.643
    outer loop
      vertex 10 2.009 2.606
      vertex 12.192 2.706 3.438
      vertex 10 2.706 3.438
    endloop
  endfacet
  facet normal 1 0 0
    outer loop
      vertex 10 -2.009 2.606
      vertex 10 -1.407 4.188
      vertex 10 -2.706 3.438
    endloop
  endfacet
  facet normal 1 0 0
    outer loop
      vertex 10 2.009 2.606
      vertex 10 2.706 3.438
      vertex 10 1.407 4.188
    endloop
  endfacet
  facet normal 1 0 0
    outer loop
      vertex 10 -2.009 2.606
      vertex 10 -1.044 3.755
      vertex 10 -1.407 4.188
    endloop
  endfacet
  facet normal 1 0 0
    outer loop
      vertex 10 2.009 2.606
      vertex 10 1.407 4.188
      vertex 10 1.044 3.755
    endloop
  endfacet
  facet normal 0 0.174 0.985
    outer loop
      vertex 2 0 3.375
      vertex 4 -0.556 3.473
      vertex 4 0 3.375
    endloop
  endfacet
  facet normal 0 0.174 0.985
    outer loop
      vertex 6.64 0 3.375
      vertex 10 -0.556 3.473
      vertex 10 0 3.375
    endloop
  endfacet
  facet normal 0 -0.174 0.985
    outer loop
      vertex 2 0 3.375
      vertex 4 0 3.375
      vertex 2 0.556 3.473
    endloop
  endfacet
  facet normal 0 -0.174 0.985
    outer loop
      vertex 6.64 0 3.375
      vertex 10 0 3.375
      vertex 6.64 0.556 3.473
    endloop
  endfacet
  facet normal 0 0.174 0.985
    outer loop
      vertex 2 0 3.375
      vertex 2 -0.556 3.473
      vertex 4 -0.556 3.473
    endloop
  endfacet
  facet normal 0 0.174 0.985
    outer loop
      vertex 6.64 0 3.375
      vertex 6.64 -0.556 3.473
      vertex 10 -0.556 3.473
    endloop
  endfacet
  facet normal 0 -0.174 0.985
    outer loop
      vertex 4 0 3.375
      vertex 4 0.556 3.473
      vertex 2 0.556 3.473
    endloop
  endfacet
  facet normal 0 -0.174 0.985
    outer loop
      vertex 10 0 3.375
      vertex 10 0.556 3.473
      vertex 6.64 0.556 3.473
    endloop
  endfacet
  facet normal 0 0.94 0.342
    outer loop
      vertex 10 -2.706 3.438
      vertex 12.15 -2.936 4.069
      vertex 12.192 -2.706 3.438
    endloop
  endfacet
  facet normal 0 -0.94 0.342
    outer loop
      vertex 10 2.706 3.438
      vertex 12.192 2.706 3.438
      vertex 12.15 2.936 4.069
    endloop
  endfacet
  facet normal 0 0.94 0.342
    outer loop
      vertex 10 -2.706 3.438
      vertex 10 -3.078 4.457
      vertex 12.15 -2.936 4.069
    endloop
  endfacet
  facet normal 0 -0.94 0.342
    outer loop
      vertex 10 2.706 3.438
      vertex 12.15 2.936 4.069
      vertex 10 3.078 4.457
    endloop
  endfacet
  facet normal 1 0 0
    outer loop
      vertex 10 -2.706 3.438
      vertex 10 -1.407 4.188
      vertex 10 -1.6 4.718
    endloop
  endfacet
  facet normal 1 0 0
    outer loop
      vertex 10 2.706 3.438
      vertex 10 1.6 4.718
      vertex 10 1.407 4.188
    endloop
  endfacet
  facet normal 1 0 0
    outer loop
      vertex 10 -2.706 3.438
      vertex 10 -1.6 4.718
      vertex 10 -3.078 4.457
    endloop
  endfacet
  facet normal 1 0 0
    outer loop
      vertex 10 2.706 3.438
      vertex 10 3.078 4.457
      vertex 10 1.6 4.718
    endloop
  endfacet
  facet normal 0 0.5 0.866
    outer loop
      vertex 2 -0.556 3.473
      vertex 4 -1.044 3.755
      vertex 4 -0.556 3.473
    endloop
  endfacet
  facet normal 0 0.5 0.866
    outer loop
      vertex 6.64 -0.556 3.473
      vertex 10 -1.044 3.755
      vertex 10 -0.556 3.473
    endloop
  endfacet
  facet normal 0 -0.5 0.866
    outer loop
      vertex 2 0.556 3.473
      vertex 4 0.556 3.473
      vertex 2 1.044 3.755
    endloop
  endfacet
  facet normal 0 -0.5 0.866
    outer loop
      vertex 6.64 0.556 3.473
      vertex 10 0.556 3.473
      vertex 6.64 1.044 3.755
    endloop
  endfacet
  facet normal 0 0.5 0.866
    outer loop
      vertex 2 -0.556 3.473
      vertex 2 -1.044 3.755
      vertex 4 -1.044 3.755
    endloop
  endfacet
  facet normal 0 0.5 0.866
    outer loop
      vertex 6.64 -0.556 3.473
      vertex 6.64 -1.044 3.755
      vertex 10 -1.044 3.755
    endloop
  endfacet
  facet normal 0 -0.5 0.866
    outer loop
      vertex 4 0.556 3.473
      vertex 4 1.044 3.755
      vertex 2 1.044 3.755
    endloop
  endfacet
  facet normal 0 -0.5 0.866
    outer loop
      vertex 10 0.556 3.473
      vertex 10 1.044 3.755
      vertex 6.64 1.044 3.755
    endloop
  endfacet
  facet normal 0 0.766 0.643
    outer loop
      vertex 2 -1.044 3.755
      vertex 2 -1.407 4.188
      vertex 4 -1.044 3.755
    endloop
  endfacet
  facet normal 0 0.766 0.643
    outer loop
      vertex 6.64 -1.044 3.755
      vertex 6.64 -1.407 4.188
      vertex 10 -1.044 3.755
    endloop
  endfacet
  facet normal 0 -0.766 0.643
    outer loop
      vertex 2 1.044 3.755
      vertex 4 1.044 3.755
      vertex 4 1.407 4.188
    endloop
  endfacet
  facet normal 0 -0.766 0.643
    outer loop
      vertex 6.64 1.044 3.755
      vertex 10 1.044 3.755
      vertex 10 1.407 4.188
    endloop
  endfacet
  facet normal 0 0.766 0.643
    outer loop
      vertex 4 -1.044 3.755
      vertex 2 -1.407 4.188
      vertex 4 -1.407 4.188
    endloop
  endfacet
  facet normal 0 0.766 0.643
    outer loop
      vertex 10 -1.044 3.755
      vertex 6.64 -1.407 4.188
      vertex 10 -1.407 4.188
    endloop
  endfacet
  facet normal 0 -0.766 0.643
    outer loop
      vertex 2 1.044 3.755
      vertex 4 1.407 4.188
      vertex 2 1.407 4.188
    endloop
  endfacet
  facet normal 0 -0.766 0.643
    outer loop
      vertex 6.64 1.044 3.755
      vertex 10 1.407 4.188
      vertex 6.64 1.407 4.188
    endloop
  endfacet
  facet normal 0 0.94 0.342
    outer loop
      vertex 12.15 -2.936 4.069
      vertex 10 -3.078 4.457
      vertex 12.107 -3.078 4.457
    endloop
  endfacet
  facet normal 0 -0.94 0.342
    outer loop
      vertex 12.15 2.936 4.069
      vertex 12.107 3.078 4.457
      vertex 10 3.078 4.457
    endloop
  endfacet
  facet normal 0 0.94 0.342
    outer loop
      vertex 2 -1.407 4.188
      vertex 2 -1.6 4.718
      vertex 4 -1.407 4.188
    endloop
  endfacet
  facet normal 0 0.94 0.342
    outer loop
      vertex 6.64 -1.407 4.188
      vertex 6.64 -1.6 4.718
      vertex 10 -1.407 4.188
    endloop
  endfacet
  facet normal 0 -0.94 0.342
    outer loop
      vertex 2 1.407 4.188
      vertex 4 1.407 4.188
      vertex 4 1.6 4.718
    endloop
  endfacet
  facet normal 0 -0.94 0.342
    outer loop
      vertex 6.64 1.407 4.188
      vertex 10 1.407 4.188
      vertex 10 1.6 4.718
    endloop
  endfacet
  facet normal 0 0.94 0.342
    outer loop
      vertex 4 -1.407 4.188
      vertex 2 -1.6 4.718
      vertex 4 -1.6 4.718
    endloop
  endfacet
  facet normal 0 0.94 0.342
    outer loop
      vertex 10 -1.407 4.188
      vertex 6.64 -1.6 4.718
      vertex 10 -1.6 4.718
    endloop
  endfacet
  facet normal 0 -0.94 0.342
    outer loop
      vertex 2 1.407 4.188
      vertex 4 1.6 4.718
      vertex 2 1.6 4.718
    endloop
  endfacet
  facet normal 0 -0.94 0.342
    outer loop
      vertex 6.64 1.407 4.188
      vertex 10 1.6 4.718
      vertex 6.64 1.6 4.718
    endloop
  endfacet
  facet normal 0 1 0
    outer loop
      vertex 10 -3.078 4.457
      vertex 10 -3.078 5.543
      vertex 12.107 -3.078 4.457
    endloop
  endfacet
  facet normal 0 -1 0
    outer loop
      vertex 10 3.078 4.457
      vertex 12.107 3.078 4.457
      vertex 12.107 3.078 5.543
    endloop
  endfacet
  facet normal 1 0 0
    outer loop
      vertex 10 3.078 4.457
      vertex 10 1.6 5.282
      vertex 10 1.6 4.718
    endloop
  endfacet
  facet normal 1 0 0
    outer loop
      vertex 10 -3.078 4.457
      vertex 10 -1.6 4.718
      vertex 10 -3.078 5.543
    endloop
  endfacet
  facet normal 1 0 0
    outer loop
      vertex 10 3.078 4.457
      vertex 10 3.078 5.543
      vertex 10 1.6 5.282
    endloop
  endfacet
  facet normal 0 1 0
    outer loop
      vertex 12.107 -3.078 4.457
      vertex 10 -3.078 5.543
      vertex 12.107 -3.078 5.543
    endloop
  endfacet
  facet normal 0 -1 0
    outer loop
      vertex 10 3.078 4.457
      vertex 12.107 3.078 5.543
      vertex 10 3.078 5.543
    endloop
  endfacet
  facet normal 0 1 0
    outer loop
      vertex 2 -1.6 4.718
      vertex 2 -1.6 5.282
      vertex 4 -1.6 4.718
    endloop
  endfacet
  facet normal 0 1 0
    outer loop
      vertex 6.64 -1.6 4.718
      vertex 6.64 -1.6 5.282
      vertex 10 -1.6 4.718
    endloop
  endfacet
  facet normal 0 -1 0
    outer loop
      vertex 2 1.6 4.718
      vertex 4 1.6 4.718
      vertex 4 1.6 5.282
    endloop
  endfacet
  facet normal 0 -1 0
    outer loop
      vertex 6.64 1.6 4.718
      vertex 10 1.6 4.718
      vertex 10 1.6 5.282
    endloop
  endfacet
  facet normal 0 1 0
    outer loop
      vertex 4 -1.6 4.718
      vertex 2 -1.6 5.282
      vertex 4 -1.6 5.282
    endloop
  endfacet
  facet normal 0 1 0
    outer loop
      vertex 10 -1.6 4.718
      vertex 6.64 -1.6 5.282
      vertex 10 -1.6 5.282
    endloop
  endfacet
  facet normal 0 -1 0
    outer loop
      vertex 2 1.6 4.718
      vertex 4 1.6 5.282
      vertex 2 1.6 5.282
    endloop
  endfacet
  facet normal 0 -1 0
    outer loop
      vertex 6.64 1.6 4.718
      vertex 10 1.6 5.282
      vertex 6.64 1.6 5.282
    endloop
  endfacet
  facet normal 1 0 0
    outer loop
      vertex 10 -1.6 4.718
      vertex 10 -1.6 5.282
      vertex 10 -3.078 5.543
    endloop
  endfacet
  facet normal 1 0 0
    outer loop
      vertex 4 -1.6 4.718
      vertex 4 -1.6 5.282
      vertex 4 -2.86 6.651
    endloop
  endfacet
  facet normal -1 0 0
    outer loop
      vertex 6.64 -1.6 4.718
      vertex 6.64 -2.86 6.651
      vertex 6.64 -1.6 5.282
    endloop
  endfacet
  facet normal 1 0 0
    outer loop
      vertex 4 1.6 4.718
      vertex 4 2.86 6.651
      vertex 4 1.6 5.282
    endloop
  endfacet
  facet normal -1 0 0
    outer loop
      vertex 6.64 1.6 4.718
      vertex 6.64 1.6 5.282
      vertex 6.64 2.86 6.651
    endloop
  endfacet
  facet normal 0 0.94 -0.342
    outer loop
      vertex 2 -1.6 5.282
      vertex 2 -1.407 5.812
      vertex 4 -1.6 5.282
    endloop
  endfacet
  facet normal 0 0.94 -0.342
    outer loop
      vertex 6.64 -1.6 5.282
      vertex 6.64 -1.407 5.812
      vertex 10 -1.6 5.282
    endloop
  endfacet
  facet normal 0 -0.94 -0.342
    outer loop
      vertex 2 1.6 5.282
      vertex 4 1.6 5.282
      vertex 4 1.407 5.812
    endloop
  endfacet
  facet normal 0 -0.94 -0.342
    outer loop
      vertex 6.64 1.6 5.282
      vertex 10 1.6 5.282
      vertex 10 1.407 5.812
    endloop
  endfacet
  facet normal 1 0 0
    outer loop
      vertex 10 -1.6 5.282
      vertex 10 -2.706 6.562
      vertex 10 -3.078 5.543
    endloop
  endfacet
  facet normal 1 0 0
    outer loop
      vertex 10 1.6 5.282
      vertex 10 3.078 5.543
      vertex 10 2.706 6.562
    endloop
  endfacet
  facet normal 0 0.94 -0.342
    outer loop
      vertex 4 -1.6 5.282
      vertex 2 -1.407 5.812
      vertex 4 -1.407 5.812
    endloop
  endfacet
  facet normal 0 0.94 -0.342
    outer loop
      vertex 10 -1.6 5.282
      vertex 6.64 -1.407 5.812
      vertex 10 -1.407 5.812
    endloop
  endfacet
  facet normal 0 -0.94 -0.342
    outer loop
      vertex 2 1.6 5.282
      vertex 4 1.407 5.812
      vertex 2 1.407 5.812
    endloop
  endfacet
  facet normal 0 -0.94 -0.342
    outer loop
      vertex 6.64 1.6 5.282
      vertex 10 1.407 5.812
      vertex 6.64 1.407 5.812
    endloop
  endfacet
  facet normal 1 0 0
    outer loop
      vertex 10 -1.6 5.282
      vertex 10 -1.407 5.812
      vertex 10 -2.706 6.562
    endloop
  endfacet
  facet normal 1 0 0
    outer loop
      vertex 10 1.6 5.282
      vertex 10 2.706 6.562
      vertex 10 1.407 5.812
    endloop
  endfacet
  facet normal 1 0 0
    outer loop
      vertex 4 -1.6 5.282
      vertex 4 -1.407 5.812
      vertex 4 -2.86 6.651
    endloop
  endfacet
  facet normal -1 0 0
    outer loop
      vertex 6.64 -1.6 5.282
      vertex 6.64 -2.86 6.651
      vertex 6.64 -1.407 5.812
    endloop
  endfacet
  facet normal 1 0 0
    outer loop
      vertex 4 1.6 5.282
      vertex 4 2.86 6.651
      vertex 4 1.407 5.812
    endloop
  endfacet
  facet normal -1 0 0
    outer loop
      vertex 6.64 1.6 5.282
      vertex 6.64 1.407 5.812
      vertex 6.64 2.86 6.651
    endloop
  endfacet
  facet normal -1 0 0
    outer loop
      vertex 2 -1.6 5.282
      vertex 2 -1.857 31.99
      vertex 2 -1.407 5.812
    endloop
  endfacet
  facet normal -1 0 0
    outer loop
      vertex 2 1.6 5.282
      vertex 2 1.407 5.812
      vertex 2 1.857 31.99
    endloop
  endfacet
  facet normal 0 0.94 -0.342
    outer loop
      vertex 10 -3.078 5.543
      vertex 12.15 -2.936 5.931
      vertex 12.107 -3.078 5.543
    endloop
  endfacet
  facet normal 0 -0.94 -0.342
    outer loop
      vertex 10 3.078 5.543
      vertex 12.107 3.078 5.543
      vertex 12.15 2.936 5.931
    endloop
  endfacet
  facet normal 0 0.94 -0.342
    outer loop
      vertex 10 -3.078 5.543
      vertex 10 -2.706 6.562
      vertex 12.15 -2.936 5.931
    endloop
  endfacet
  facet normal 0 -0.94 -0.342
    outer loop
      vertex 10 3.078 5.543
      vertex 12.15 2.936 5.931
      vertex 10 2.706 6.562
    endloop
  endfacet
  facet normal 0.956 -0.292 0
    outer loop
      vertex 12.107 -3.078 5.543
      vertex 12.15 -2.936 5.931
      vertex 11.718 -4.353 20
    endloop
  endfacet
  facet normal 0.956 0.292 0
    outer loop
      vertex 12.107 3.078 5.543
      vertex 11.718 4.353 20
      vertex 12.15 2.936 5.931
    endloop
  endfacet
  facet normal 0 0.766 -0.643
    outer loop
      vertex 2 -1.407 5.812
      vertex 2 -1.044 6.245
      vertex 4 -1.407 5.812
    endloop
  endfacet
  facet normal 0 0.766 -0.643
    outer loop
      vertex 6.64 -1.407 5.812
      vertex 6.64 -1.044 6.245
      vertex 10 -1.407 5.812
    endloop
  endfacet
  facet normal 0 -0.766 -0.643
    outer loop
      vertex 2 1.407 5.812
      vertex 4 1.407 5.812
      vertex 4 1.044 6.245
    endloop
  endfacet
  facet normal 0 -0.766 -0.643
    outer loop
      vertex 6.64 1.407 5.812
      vertex 10 1.407 5.812
      vertex 10 1.044 6.245
    endloop
  endfacet
  facet normal 0 0.766 -0.643
    outer loop
      vertex 4 -1.407 5.812
      vertex 2 -1.044 6.245
      vertex 4 -1.044 6.245
    endloop
  endfacet
  facet normal 0 0.766 -0.643
    outer loop
      vertex 10 -1.407 5.812
      vertex 6.64 -1.044 6.245
      vertex 10 -1.044 6.245
    endloop
  endfacet
  facet normal 0 -0.766 -0.643
    outer loop
      vertex 2 1.407 5.812
      vertex 4 1.044 6.245
      vertex 2 1.044 6.245
    endloop
  endfacet
  facet normal 0 -0.766 -0.643
    outer loop
      vertex 6.64 1.407 5.812
      vertex 10 1.044 6.245
      vertex 6.64 1.044 6.245
    endloop
  endfacet
  facet normal 1 0 0
    outer loop
      vertex 4 -1.407 5.812
      vertex 4 -1.044 6.245
      vertex 4 -2.86 6.651
    endloop
  endfacet
  facet normal -1 0 0
    outer loop
      vertex 6.64 -1.407 5.812
      vertex 6.64 -2.86 6.651
      vertex 6.64 -1.044 6.245
    endloop
  endfacet
  facet normal 1 0 0
    outer loop
      vertex 4 1.407 5.812
      vertex 4 2.86 6.651
      vertex 4 1.044 6.245
    endloop
  endfacet
  facet normal -1 0 0
    outer loop
      vertex 6.64 1.407 5.812
      vertex 6.64 1.044 6.245
      vertex 6.64 2.86 6.651
    endloop
  endfacet
  facet normal 1 0 0
    outer loop
      vertex 10 -1.407 5.812
      vertex 10 -1.044 6.245
      vertex 10 -2.009 7.394
    endloop
  endfacet
  facet normal 1 0 0
    outer loop
      vertex 10 1.407 5.812
      vertex 10 2.009 7.394
      vertex 10 1.044 6.245
    endloop
  endfacet
  facet normal -1 0 0
    outer loop
      vertex 2 -1.407 5.812
      vertex 2 -1.857 31.99
      vertex 2 -1.044 6.245
    endloop
  endfacet
  facet normal -1 0 0
    outer loop
      vertex 2 1.407 5.812
      vertex 2 1.044 6.245
      vertex 2 1.857 31.99
    endloop
  endfacet
  facet normal 1 0 0
    outer loop
      vertex 10 -1.407 5.812
      vertex 10 -2.009 7.394
      vertex 10 -2.706 6.562
    endloop
  endfacet
  facet normal 1 0 0
    outer loop
      vertex 10 1.407 5.812
      vertex 10 2.706 6.562
      vertex 10 2.009 7.394
    endloop
  endfacet
  facet normal 0 0.94 -0.342
    outer loop
      vertex 12.15 -2.936 5.931
      vertex 10 -2.706 6.562
      vertex 12.192 -2.706 6.562
    endloop
  endfacet
  facet normal 0 -0.94 -0.342
    outer loop
      vertex 12.15 2.936 5.931
      vertex 12.192 2.706 6.562
      vertex 10 2.706 6.562
    endloop
  endfacet
  facet normal 0.984 -0.177 0
    outer loop
      vertex 12.15 -2.936 5.931
      vertex 12.192 -2.706 6.562
      vertex 12.15 -2.936 20
    endloop
  endfacet
  facet normal 0.984 0.177 0
    outer loop
      vertex 12.15 2.936 5.931
      vertex 12.15 2.936 20
      vertex 12.192 2.706 6.562
    endloop
  endfacet
  facet normal 0.956 -0.292 0
    outer loop
      vertex 12.15 -2.936 5.931
      vertex 12.15 -2.936 20
      vertex 11.718 -4.353 20
    endloop
  endfacet
  facet normal 0.956 0.292 0
    outer loop
      vertex 12.15 2.936 5.931
      vertex 11.718 4.353 20
      vertex 12.15 2.936 20
    endloop
  endfacet
  facet normal 0 0.5 -0.866
    outer loop
      vertex 2 -1.044 6.245
      vertex 4 -0.556 6.527
      vertex 4 -1.044 6.245
    endloop
  endfacet
  facet normal 0 0.5 -0.866
    outer loop
      vertex 6.64 -1.044 6.245
      vertex 10 -0.556 6.527
      vertex 10 -1.044 6.245
    endloop
  endfacet
  facet normal 0 -0.5 -0.866
    outer loop
      vertex 2 1.044 6.245
      vertex 4 1.044 6.245
      vertex 2 0.556 6.527
    endloop
  endfacet
  facet normal 0 -0.5 -0.866
    outer loop
      vertex 6.64 1.044 6.245
      vertex 10 1.044 6.245
      vertex 6.64 0.556 6.527
    endloop
  endfacet
  facet normal 0 0.5 -0.866
    outer loop
      vertex 2 -1.044 6.245
      vertex 2 -0.556 6.527
      vertex 4 -0.556 6.527
    endloop
  endfacet
  facet normal 0 0.5 -0.866
    outer loop
      vertex 6.64 -1.044 6.245
      vertex 6.64 -0.556 6.527
      vertex 10 -0.556 6.527
    endloop
  endfacet
  facet normal 0 -0.5 -0.866
    outer loop
      vertex 4 1.044 6.245
      vertex 4 0.556 6.527
      vertex 2 0.556 6.527
    endloop
  endfacet
  facet normal 0 -0.5 -0.866
    outer loop
      vertex 10 1.044 6.245
      vertex 10 0.556 6.527
      vertex 6.64 0.556 6.527
    endloop
  endfacet
  facet normal 1 0 0
    outer loop
      vertex 4 1.044 6.245
      vertex 4 2.86 6.651
      vertex 4 0.556 6.527
    endloop
  endfacet
  facet normal -1 0 0
    outer loop
      vertex 6.64 1.044 6.245
      vertex 6.64 0.556 6.527
      vertex 6.64 2.86 6.651
    endloop
  endfacet
  facet normal 1 0 0
    outer loop
      vertex 10 -1.044 6.245
      vertex 10 -0.556 6.527
      vertex 10 -1.069 7.936
    endloop
  endfacet
  facet normal 1 0 0
    outer loop
      vertex 10 1.044 6.245
      vertex 10 1.069 7.936
      vertex 10 0.556 6.527
    endloop
  endfacet
  facet normal 1 0 0
    outer loop
      vertex 4 -1.044 6.245
      vertex 4 -0.556 6.527
      vertex 4 0 8.302
    endloop
  endfacet
  facet normal -1 0 0
    outer loop
      vertex 6.64 -1.044 6.245
      vertex 6.64 0 8.302
      vertex 6.64 -0.556 6.527
    endloop
  endfacet
  facet normal -1 0 0
    outer loop
      vertex 2 -1.044 6.245
      vertex 2 -1.857 31.99
      vertex 2 -0.556 6.527
    endloop
  endfacet
  facet normal -1 0 0
    outer loop
      vertex 2 1.044 6.245
      vertex 2 0.556 6.527
      vertex 2 1.857 31.99
    endloop
  endfacet
  facet normal 1 0 0
    outer loop
      vertex 4 -1.044 6.245
      vertex 4 0 8.302
      vertex 4 -2.86 6.651
    endloop
  endfacet
  facet normal -1 0 0
    outer loop
      vertex 6.64 -1.044 6.245
      vertex 6.64 -2.86 6.651
      vertex 6.64 0 8.302
    endloop
  endfacet
  facet normal 1 0 0
    outer loop
      vertex 10 -1.044 6.245
      vertex 10 -1.069 7.936
      vertex 10 -2.009 7.394
    endloop
  endfacet
  facet normal 1 0 0
    outer loop
      vertex 10 1.044 6.245
      vertex 10 2.009 7.394
      vertex 10 1.069 7.936
    endloop
  endfacet
  facet normal 0 0.174 -0.985
    outer loop
      vertex 2 -0.556 6.527
      vertex 4 0 6.625
      vertex 4 -0.556 6.527
    endloop
  endfacet
  facet normal 0 0.174 -0.985
    outer loop
      vertex 6.64 -0.556 6.527
      vertex 10 0 6.625
      vertex 10 -0.556 6.527
    endloop
  endfacet
  facet normal 0 -0.174 -0.985
    outer loop
      vertex 2 0.556 6.527
      vertex 4 0.556 6.527
      vertex 2 0 6.625
    endloop
  endfacet
  facet normal 0 -0.174 -0.985
    outer loop
      vertex 6.64 0.556 6.527
      vertex 10 0.556 6.527
      vertex 6.64 0 6.625
    endloop
  endfacet
  facet normal 0 0.174 -0.985
    outer loop
      vertex 2 -0.556 6.527
      vertex 2 0 6.625
      vertex 4 0 6.625
    endloop
  endfacet
  facet normal 0 0.174 -0.985
    outer loop
      vertex 6.64 -0.556 6.527
      vertex 6.64 0 6.625
      vertex 10 0 6.625
    endloop
  endfacet
  facet normal 0 -0.174 -0.985
    outer loop
      vertex 4 0.556 6.527
      vertex 4 0 6.625
      vertex 2 0 6.625
    endloop
  endfacet
  facet normal 0 -0.174 -0.985
    outer loop
      vertex 10 0.556 6.527
      vertex 10 0 6.625
      vertex 6.64 0 6.625
    endloop
  endfacet
  facet normal 1 0 0
    outer loop
      vertex 10 -0.556 6.527
      vertex 10 0 6.625
      vertex 10 0 8.125
    endloop
  endfacet
  facet normal 1 0 0
    outer loop
      vertex 10 0.556 6.527
      vertex 10 0 8.125
      vertex 10 0 6.625
    endloop
  endfacet
  facet normal 1 0 0
    outer loop
      vertex 4 -0.556 6.527
      vertex 4 0 6.625
      vertex 4 0 8.302
    endloop
  endfacet
  facet normal -1 0 0
    outer loop
      vertex 6.64 -0.556 6.527
      vertex 6.64 0 8.302
      vertex 6.64 0 6.625
    endloop
  endfacet
  facet normal 1 0 0
    outer loop
      vertex 4 0.556 6.527
      vertex 4 0 8.302
      vertex 4 0 6.625
    endloop
  endfacet
  facet normal -1 0 0
    outer loop
      vertex 6.64 0.556 6.527
      vertex 6.64 0 6.625
      vertex 6.64 0 8.302
    endloop
  endfacet
  facet normal -1 0 0
    outer loop
      vertex 2 -0.556 6.527
      vertex 2 -1.857 31.99
      vertex 2 0 6.625
    endloop
  endfacet
  facet normal -1 0 0
    outer loop
      vertex 2 0.556 6.527
      vertex 2 0 6.625
      vertex 2 1.857 31.99
    endloop
  endfacet
  facet normal 1 0 0
    outer loop
      vertex 4 0.556 6.527
      vertex 4 2.86 6.651
      vertex 4 0 8.302
    endloop
  endfacet
  facet normal -1 0 0
    outer loop
      vertex 6.64 0.556 6.527
      vertex 6.64 0 8.302
      vertex 6.64 2.86 6.651
    endloop
  endfacet
  facet normal 1 0 0
    outer loop
      vertex 10 -0.556 6.527
      vertex 10 0 8.125
      vertex 10 -1.069 7.936
    endloop
  endfacet
  facet normal 1 0 0
    outer loop
      vertex 10 0.556 6.527
      vertex 10 1.069 7.936
      vertex 10 0 8.125
    endloop
  endfacet
  facet normal 0 0.766 -0.643
    outer loop
      vertex 10 -2.706 6.562
      vertex 10 -2.009 7.394
      vertex 12.192 -2.706 6.562
    endloop
  endfacet
  facet normal 0 -0.766 -0.643
    outer loop
      vertex 10 2.706 6.562
      vertex 12.192 2.706 6.562
      vertex 10 2.009 7.394
    endloop
  endfacet
  facet normal 0 0.766 -0.643
    outer loop
      vertex 12.192 -2.706 6.562
      vertex 10 -2.009 7.394
      vertex 12.317 -2.009 7.394
    endloop
  endfacet
  facet normal 0 -0.766 -0.643
    outer loop
      vertex 12.192 2.706 6.562
      vertex 12.317 2.009 7.394
      vertex 10 2.009 7.394
    endloop
  endfacet
  facet normal 0.984 -0.177 0
    outer loop
      vertex 12.192 -2.706 6.562
      vertex 12.317 -2.009 7.394
      vertex 12.15 -2.936 20
    endloop
  endfacet
  facet normal 0.984 0.177 0
    outer loop
      vertex 12.192 2.706 6.562
      vertex 12.15 2.936 20
      vertex 12.317 2.009 7.394
    endloop
  endfacet
  facet normal -1 0 0
    outer loop
      vertex 2 0 6.625
      vertex 2 -1.857 31.99
      vertex 2 1.857 31.99
    endloop
  endfacet
  facet normal 0 0.5 -0.866
    outer loop
      vertex 4 -2.86 6.651
      vertex 6.64 0 8.302
      vertex 6.64 -2.86 6.651
    endloop
  endfacet
  facet normal 0 -0.5 -0.866
    outer loop
      vertex 4 2.86 6.651
      vertex 6.64 2.86 6.651
      vertex 4 0 8.302
    endloop
  endfacet
  facet normal 0 0.5 -0.866
    outer loop
      vertex 4 -2.86 6.651
      vertex 4 0 8.302
      vertex 6.64 0 8.302
    endloop
  endfacet
  facet normal 0 -0.5 -0.866
    outer loop
      vertex 6.64 2.86 6.651
      vertex 6.64 0 8.302
      vertex 4 0 8.302
    endloop
  endfacet
  facet normal 0 0.5 -0.866
    outer loop
      vertex 10 -2.009 7.394
      vertex 10 -1.069 7.936
      vertex 12.317 -2.009 7.394
    endloop
  endfacet
  facet normal 0 -0.5 -0.866
    outer loop
      vertex 10 2.009 7.394
      vertex 12.317 2.009 7.394
      vertex 10 1.069 7.936
    endloop
  endfacet
  facet normal 0 0.5 -0.866
    outer loop
      vertex 12.317 -2.009 7.394
      vertex 10 -1.069 7.936
      vertex 12.412 -1.478 7.7
    endloop
  endfacet
  facet normal 0 -0.5 -0.866
    outer loop
      vertex 12.317 2.009 7.394
      vertex 12.412 1.478 7.7
      vertex 10 1.069 7.936
    endloop
  endfacet
  facet normal 0.984 -0.177 0
    outer loop
      vertex 12.317 -2.009 7.394
      vertex 12.412 -1.478 7.7
      vertex 12.15 -2.936 20
    endloop
  endfacet
  facet normal 0.984 0.177 0
    outer loop
      vertex 12.317 2.009 7.394
      vertex 12.15 2.936 20
      vertex 12.412 1.478 7.7
    endloop
  endfacet
  facet normal 0 0.5 -0.866
    outer loop
      vertex 12.412 -1.478 7.7
      vertex 10 -1.069 7.936
      vertex 12.437 -1.069 7.936
    endloop
  endfacet
  facet normal 0 -0.5 -0.866
    outer loop
      vertex 12.412 1.478 7.7
      vertex 12.437 1.069 7.936
      vertex 10 1.069 7.936
    endloop
  endfacet
  facet normal 0.998 -0.059 0
    outer loop
      vertex 12.412 -1.478 7.7
      vertex 12.437 -1.069 7.936
      vertex 12.412 -1.478 20
    endloop
  endfacet
  facet normal 0.998 0.059 0
    outer loop
      vertex 12.412 1.478 7.7
      vertex 12.412 1.478 20
      vertex 12.437 1.069 7.936
    endloop
  endfacet
  facet normal 0.984 -0.177 0
    outer loop
      vertex 12.412 -1.478 7.7
      vertex 12.412 -1.478 20
      vertex 12.15 -2.936 20
    endloop
  endfacet
  facet normal 0.984 0.177 0
    outer loop
      vertex 12.412 1.478 7.7
      vertex 12.15 2.936 20
      vertex 12.412 1.478 20
    endloop
  endfacet
  facet normal 0 0.174 -0.985
    outer loop
      vertex 10 -1.069 7.936
      vertex 10 0 8.125
      vertex 12.437 -1.069 7.936
    endloop
  endfacet
  facet normal 0 -0.174 -0.985
    outer loop
      vertex 10 1.069 7.936
      vertex 12.437 1.069 7.936
      vertex 10 0 8.125
    endloop
  endfacet
  facet normal 0 0.174 -0.985
    outer loop
      vertex 12.437 -1.069 7.936
      vertex 10 0 8.125
      vertex 12.5 0 8.125
    endloop
  endfacet
  facet normal 0 -0.174 -0.985
    outer loop
      vertex 12.437 1.069 7.936
      vertex 12.5 0 8.125
      vertex 10 0 8.125
    endloop
  endfacet
  facet normal 0.998 -0.059 0
    outer loop
      vertex 12.437 -1.069 7.936
      vertex 12.5 0 8.125
      vertex 12.412 -1.478 20
    endloop
  endfacet
  facet normal 0.998 0.059 0
    outer loop
      vertex 12.437 1.069 7.936
      vertex 12.412 1.478 20
      vertex 12.5 0 8.125
    endloop
  endfacet
  facet normal 0.998 -0.059 0
    outer loop
      vertex 12.5 0 8.125
      vertex 12.5 0 20
      vertex 12.412 -1.478 20
    endloop
  endfacet
  facet normal 0.998 0.059 0
    outer loop
      vertex 12.5 0 8.125
      vertex 12.412 1.478 20
      vertex 12.5 0 20
    endloop
  endfacet
  facet normal 0 0 1
    outer loop
      vertex 0.37 -12.495 20
      vertex 0 -7 20
      vertex -1.11 -12.451 20
    endloop
  endfacet
  facet normal 0 0 1
    outer loop
      vertex 0.37 -12.495 20
      vertex 1.846 -12.363 20
      vertex 0 -7 20
    endloop
  endfacet
  facet normal 0 0 1
    outer loop
      vertex -1.11 -12.451 20
      vertex 0 -7 20
      vertex -2.575 -12.232 20
    endloop
  endfacet
  facet normal 0 0 1
    outer loop
      vertex 1.846 -12.363 20
      vertex 3.295 -12.058 20
      vertex 0 -7 20
    endloop
  endfacet
  facet normal 0 0 1
    outer loop
      vertex -2.575 -12.232 20
      vertex 0 -7 20
      vertex -4.003 -11.842 20
    endloop
  endfacet
  facet normal 0 0 1
    outer loop
      vertex 3.295 -12.058 20
      vertex 4.698 -11.584 20
      vertex 0 -7 20
    endloop
  endfacet
  facet normal 0 0 1
    outer loop
      vertex -4.003 -11.842 20
      vertex 0 -7 20
      vertex -5.376 -11.285 20
    endloop
  endfacet
  facet normal 0 0 1
    outer loop
      vertex 4.698 -11.584 20
      vertex 6.035 -10.947 20
      vertex 0 -7 20
    endloop
  endfacet
  facet normal 0 0 1
    outer loop
      vertex -5.376 -11.285 20
      vertex 0 -7 20
      vertex -6.673 -10.57 20
    endloop
  endfacet
  facet normal 0 0 1
    outer loop
      vertex 6.035 -10.947 20
      vertex 7.287 -10.156 20
      vertex 4.455 -2.545 20
    endloop
  endfacet
  facet normal 0 0 1
    outer loop
      vertex 6.035 -10.947 20
      vertex 4.455 -2.545 20
      vertex 0 -7 20
    endloop
  endfacet
  facet normal 0 0 1
    outer loop
      vertex -6.673 -10.57 20
      vertex 0 -7 20
      vertex -7.876 -9.707 20
    endloop
  endfacet
  facet normal 0 0 1
    outer loop
      vertex 7.287 -10.156 20
      vertex 8.437 -9.223 20
      vertex 4.455 -2.545 20
    endloop
  endfacet
  facet normal 0 0 1
    outer loop
      vertex -7.876 -9.707 20
      vertex 0 -7 20
      vertex -8.969 -8.707 20
    endloop
  endfacet
  facet normal 0 0 1
    outer loop
      vertex 8.437 -9.223 20
      vertex 9.469 -8.16 20
      vertex 4.455 -2.545 20
    endloop
  endfacet
  facet normal 0 0 1
    outer loop
      vertex -8.969 -8.707 20
      vertex -7 0 20
      vertex -9.936 -7.585 20
    endloop
  endfacet
  facet normal 0 0 1
    outer loop
      vertex -8.969 -8.707 20
      vertex 0 -7 20
      vertex -7 0 20
    endloop
  endfacet
  facet normal 0 0 1
    outer loop
      vertex 9.469 -8.16 20
      vertex 10.368 -6.983 20
      vertex 4.455 -2.545 20
    endloop
  endfacet
  facet normal 0 0 1
    outer loop
      vertex -9.936 -7.585 20
      vertex -7 0 20
      vertex -10.763 -6.357 20
    endloop
  endfacet
  facet normal 0 0 1
    outer loop
      vertex 10.368 -6.983 20
      vertex 11.121 -5.708 20
      vertex 4.455 -2.545 20
    endloop
  endfacet
  facet normal 0 0 1
    outer loop
      vertex -10.763 -6.357 20
      vertex -7 0 20
      vertex -11.439 -5.039 20
    endloop
  endfacet
  facet normal 0 0 1
    outer loop
      vertex 11.121 -5.708 20
      vertex 11.718 -4.353 20
      vertex 4.455 -2.545 20
    endloop
  endfacet
  facet normal 0 0 1
    outer loop
      vertex -11.439 -5.039 20
      vertex -7 0 20
      vertex -11.955 -3.651 20
    endloop
  endfacet
  facet normal 0 0 1
    outer loop
      vertex 11.718 -4.353 20
      vertex 12.15 -2.936 20
      vertex 4.455 -2.545 20
    endloop
  endfacet
  facet normal 0 0 1
    outer loop
      vertex -11.955 -3.651 20
      vertex -7 0 20
      vertex -12.303 -2.211 20
    endloop
  endfacet
  facet normal 0 0 1
    outer loop
      vertex 12.15 -2.936 20
      vertex 12.412 -1.478 20
      vertex 4.455 -2.545 20
    endloop
  endfacet
  facet normal 0 0 1
    outer loop
      vertex 4.455 -2.545 20
      vertex 12.412 -1.478 20
      vertex 12.5 0 20
    endloop
  endfacet
  facet normal 0 0 1
    outer loop
      vertex 4.455 -2.545 20
      vertex 12.5 0 20
      vertex 4.455 2.545 20
    endloop
  endfacet
  facet normal 0 0 1
    outer loop
      vertex -12.303 -2.211 20
      vertex -7 0 20
      vertex -12.478 -0.741 20
    endloop
  endfacet
  facet normal 0 0 1
    outer loop
      vertex -12.478 -0.741 20
      vertex -7 0 20
      vertex -12.478 0.741 20
    endloop
  endfacet
  facet normal 0 0 1
    outer loop
      vertex -7 0 20
      vertex -12.303 2.211 20
      vertex -12.478 0.741 20
    endloop
  endfacet
  facet normal 0 0 1
    outer loop
      vertex 12.5 0 20
      vertex 12.412 1.478 20
      vertex 4.455 2.545 20
    endloop
  endfacet
  facet normal 0 0 1
    outer loop
      vertex -7 0 20
      vertex -11.955 3.651 20
      vertex -12.303 2.211 20
    endloop
  endfacet
  facet normal 0 0 1
    outer loop
      vertex -7 0 20
      vertex -11.439 5.039 20
      vertex -11.955 3.651 20
    endloop
  endfacet
  facet normal 0 0 1
    outer loop
      vertex -7 0 20
      vertex -10.763 6.357 20
      vertex -11.439 5.039 20
    endloop
  endfacet
  facet normal 0 0 1
    outer loop
      vertex -7 0 20
      vertex -9.936 7.585 20
      vertex -10.763 6.357 20
    endloop
  endfacet
  facet normal 0 0 1
    outer loop
      vertex -7 0 20
      vertex 0 7 20
      vertex -8.969 8.707 20
    endloop
  endfacet
  facet normal 0 0 1
    outer loop
      vertex -7 0 20
      vertex -8.969 8.707 20
      vertex -9.936 7.585 20
    endloop
  endfacet
  facet normal 0 0 1
    outer loop
      vertex 12.412 1.478 20
      vertex 12.15 2.936 20
      vertex 4.455 2.545 20
    endloop
  endfacet
  facet normal 0 0 1
    outer loop
      vertex 4.455 2.545 20
      vertex 12.15 2.936 20
      vertex 11.718 4.353 20
    endloop
  endfacet
  facet normal 0 0 1
    outer loop
      vertex 4.455 2.545 20
      vertex 11.718 4.353 20
      vertex 11.121 5.708 20
    endloop
  endfacet
  facet normal 0 0 1
    outer loop
      vertex 4.455 2.545 20
      vertex 11.121 5.708 20
      vertex 10.368 6.983 20
    endloop
  endfacet
  facet normal 0 0 1
    outer loop
      vertex 4.455 2.545 20
      vertex 10.368 6.983 20
      vertex 9.469 8.16 20
    endloop
  endfacet
  facet normal 0 0 1
    outer loop
      vertex 4.455 2.545 20
      vertex 6.035 10.947 20
      vertex 0 7 20
    endloop
  endfacet
  facet normal 0 0 1
    outer loop
      vertex 4.455 2.545 20
      vertex 9.469 8.16 20
      vertex 8.437 9.223 20
    endloop
  endfacet
  facet normal 0 0 1
    outer loop
      vertex 4.455 2.545 20
      vertex 8.437 9.223 20
      vertex 7.287 10.156 20
    endloop
  endfacet
  facet normal 0 0 1
    outer loop
      vertex 4.455 2.545 20
      vertex 7.287 10.156 20
      vertex 6.035 10.947 20
    endloop
  endfacet
  facet normal 0 0 1
    outer loop
      vertex 0 7 20
      vertex -7.876 9.707 20
      vertex -8.969 8.707 20
    endloop
  endfacet
  facet normal 0 0 1
    outer loop
      vertex 0 7 20
      vertex -6.673 10.57 20
      vertex -7.876 9.707 20
    endloop
  endfacet
  facet normal 0 0 1
    outer loop
      vertex 0 7 20
      vertex -5.376 11.285 20
      vertex -6.673 10.57 20
    endloop
  endfacet
  facet normal 0 0 1
    outer loop
      vertex 0 7 20
      vertex 6.035 10.947 20
      vertex 4.698 11.584 20
    endloop
  endfacet
  facet normal 0 0 1
    outer loop
      vertex 0 7 20
      vertex -4.003 11.842 20
      vertex -5.376 11.285 20
    endloop
  endfacet
  facet normal 0 0 1
    outer loop
      vertex 0 7 20
      vertex 4.698 11.584 20
      vertex 3.295 12.058 20
    endloop
  endfacet
  facet normal 0 0 1
    outer loop
      vertex 0 7 20
      vertex -2.575 12.232 20
      vertex -4.003 11.842 20
    endloop
  endfacet
  facet normal 0 0 1
    outer loop
      vertex 0 7 20
      vertex 3.295 12.058 20
      vertex 1.846 12.363 20
    endloop
  endfacet
  facet normal 0 0 1
    outer loop
      vertex 0 7 20
      vertex -1.11 12.451 20
      vertex -2.575 12.232 20
    endloop
  endfacet
  facet normal 0 0 1
    outer loop
      vertex 0 7 20
      vertex 1.846 12.363 20
      vertex 0.37 12.495 20
    endloop
  endfacet
  facet normal 0 0 1
    outer loop
      vertex 0 7 20
      vertex 0.37 12.495 20
      vertex -1.11 12.451 20
    endloop
  endfacet
  facet normal 0.707 -0.707 0
    outer loop
      vertex 0 -7 20
      vertex 4.455 -2.545 20
      vertex 0 -7 31.99
    endloop
  endfacet
  facet normal -0.707 -0.707 0
    outer loop
      vertex 0 -7 20
      vertex -7 0 31.99
      vertex -7 0 20
    endloop
  endfacet
  facet normal 1 0 0
    outer loop
      vertex 4.455 -2.545 20
      vertex 4.455 2.545 20
      vertex 4.455 -2.545 31.99
    endloop
  endfacet
  facet normal -0.707 0.707 0
    outer loop
      vertex -7 0 20
      vertex 0 7 31.99
      vertex 0 7 20
    endloop
  endfacet
  facet normal 0.707 0.707 0
    outer loop
      vertex 4.455 2.545 20
      vertex 0 7 20
      vertex 4.455 2.545 31.99
    endloop
  endfacet
  facet normal -0.707 -0.707 0
    outer loop
      vertex 0 -7 20
      vertex 0 -7 31.99
      vertex -7 0 31.99
    endloop
  endfacet
  facet normal 0.707 -0.707 0
    outer loop
      vertex 4.455 -2.545 20
      vertex 4.455 -2.545 31.99
      vertex 0 -7 31.99
    endloop
  endfacet
  facet normal 1 0 0
    outer loop
      vertex 4.455 2.545 20
      vertex 4.455 2.545 31.99
      vertex 4.455 -2.545 31.99
    endloop
  endfacet
  facet normal -0.707 0.707 0
    outer loop
      vertex -7 0 20
      vertex -7 0 31.99
      vertex 0 7 31.99
    endloop
  endfacet
  facet normal 0.707 0.707 0
    outer loop
      vertex 0 7 20
      vertex 0 7 31.99
      vertex 4.455 2.545 31.99
    endloop
  endfacet
  facet normal 0 0 1
    outer loop
      vertex 0 -7 31.99
      vertex 0.477 -2.708 31.99
      vertex -0.477 -2.708 31.99
    endloop
  endfacet
  facet normal 0 0 1
    outer loop
      vertex 0 -7 31.99
      vertex -0.477 -2.708 31.99
      vertex -1.375 -2.382 31.99
    endloop
  endfacet
  facet normal 0 0 1
    outer loop
      vertex 0 -7 31.99
      vertex 1.375 -2.382 31.99
      vertex 0.477 -2.708 31.99
    endloop
  endfacet
  facet normal 0 0 1
    outer loop
      vertex 0 -7 31.99
      vertex 4.455 -2.545 31.99
      vertex 1.375 -2.382 31.99
    endloop
  endfacet
  facet normal 0 0 1
    outer loop
      vertex 0 -7 31.99
      vertex -1.375 -2.382 31.99
      vertex -2.107 -1.768 31.99
    endloop
  endfacet
  facet normal 0 0 1
    outer loop
      vertex 0 -7 31.99
      vertex -2.107 -1.768 31.99
      vertex -7 0 31.99
    endloop
  endfacet
  facet normal 0 0 1
    outer loop
      vertex 4.455 -2.545 31.99
      vertex 2 -1.857 31.99
      vertex 1.375 -2.382 31.99
    endloop
  endfacet
  facet normal 0 0 1
    outer loop
      vertex 4.455 -2.545 31.99
      vertex 2 1.857 31.99
      vertex 2 -1.857 31.99
    endloop
  endfacet
  facet normal 0 0 1
    outer loop
      vertex 4.455 -2.545 31.99
      vertex 4.455 2.545 31.99
      vertex 2 1.857 31.99
    endloop
  endfacet
  facet normal 0 0 1
    outer loop
      vertex -2.107 -1.768 31.99
      vertex -2.584 -0.941 31.99
      vertex -7 0 31.99
    endloop
  endfacet
  facet normal 0 0 1
    outer loop
      vertex -2.584 -0.941 31.99
      vertex -2.75 0 31.99
      vertex -7 0 31.99
    endloop
  endfacet
  facet normal 0 0 1
    outer loop
      vertex -7 0 31.99
      vertex -2.75 0 31.99
      vertex -2.584 0.941 31.99
    endloop
  endfacet
  facet normal 0 0 1
    outer loop
      vertex -7 0 31.99
      vertex -2.584 0.941 31.99
      vertex -2.107 1.768 31.99
    endloop
  endfacet
  facet normal 0 0 1
    outer loop
      vertex -7 0 31.99
      vertex -2.107 1.768 31.99
      vertex 0 7 31.99
    endloop
  endfacet
  facet normal 0 0 1
    outer loop
      vertex -2.107 1.768 31.99
      vertex -1.375 2.382 31.99
      vertex 0 7 31.99
    endloop
  endfacet
  facet normal 0 0 1
    outer loop
      vertex 2 1.857 31.99
      vertex 4.455 2.545 31.99
      vertex 1.375 2.382 31.99
    endloop
  endfacet
  facet normal 0 0 1
    outer loop
      vertex 1.375 2.382 31.99
      vertex 4.455 2.545 31.99
      vertex 0 7 31.99
    endloop
  endfacet
  facet normal 0 0 1
    outer loop
      vertex -1.375 2.382 31.99
      vertex -0.477 2.708 31.99
      vertex 0 7 31.99
    endloop
  endfacet
  facet normal 0 0 1
    outer loop
      vertex 1.375 2.382 31.99
      vertex 0 7 31.99
      vertex 0.477 2.708 31.99
    endloop
  endfacet
  facet normal 0 0 1
    outer loop
      vertex -0.477 2.708 31.99
      vertex 0.477 2.708 31.99
      vertex 0 7 31.99
    endloop
  endfacet
endsolid Model
